%TF.GenerationSoftware,KiCad,Pcbnew,9.0.0*%
%TF.CreationDate,2025-04-19T12:22:50+05:30*%
%TF.ProjectId,Smart Pool Monitoring,536d6172-7420-4506-9f6f-6c204d6f6e69,rev?*%
%TF.SameCoordinates,Original*%
%TF.FileFunction,Paste,Top*%
%TF.FilePolarity,Positive*%
%FSLAX46Y46*%
G04 Gerber Fmt 4.6, Leading zero omitted, Abs format (unit mm)*
G04 Created by KiCad (PCBNEW 9.0.0) date 2025-04-19 12:22:50*
%MOMM*%
%LPD*%
G01*
G04 APERTURE LIST*
%ADD10R,2.200000X1.600000*%
%ADD11R,2.000000X3.000000*%
%ADD12R,2.000000X1.500000*%
%TA.AperFunction,ComponentPad*%
%ADD13R,1.500000X1.500000*%
%TD*%
%TA.AperFunction,ComponentPad*%
%ADD14C,1.500000*%
%TD*%
%TA.AperFunction,ComponentPad*%
%ADD15R,1.600000X1.600000*%
%TD*%
%TA.AperFunction,ComponentPad*%
%ADD16O,1.600000X1.600000*%
%TD*%
%TA.AperFunction,ComponentPad*%
%ADD17R,1.050000X1.500000*%
%TD*%
%TA.AperFunction,ComponentPad*%
%ADD18O,1.050000X1.500000*%
%TD*%
%TA.AperFunction,ComponentPad*%
%ADD19C,1.600000*%
%TD*%
%TA.AperFunction,ComponentPad*%
%ADD20C,3.000000*%
%TD*%
%TA.AperFunction,ComponentPad*%
%ADD21R,2.000000X2.000000*%
%TD*%
%TA.AperFunction,ComponentPad*%
%ADD22C,2.000000*%
%TD*%
%TA.AperFunction,ViaPad*%
%ADD23C,0.600000*%
%TD*%
%TA.AperFunction,Conductor*%
%ADD24C,0.200000*%
%TD*%
%ADD25R,1.500000X1.500000*%
%ADD26C,1.500000*%
%ADD27R,1.600000X1.600000*%
%ADD28O,1.600000X1.600000*%
%ADD29R,1.050000X1.500000*%
%ADD30O,1.050000X1.500000*%
%ADD31C,1.600000*%
%ADD32O,1.500000X2.000000*%
%ADD33C,2.000000*%
%ADD34C,3.000000*%
%ADD35R,2.000000X2.000000*%
%TA.AperFunction,SMDPad,CuDef*%
%ADD36R,2.200000X1.600000*%
%TD*%
%TA.AperFunction,SMDPad,CuDef*%
%ADD37R,2.000000X3.000000*%
%TD*%
%TA.AperFunction,SMDPad,CuDef*%
%ADD38R,2.000000X1.500000*%
%TD*%
%ADD39C,0.150000*%
%ADD40C,0.120000*%
%TA.AperFunction,Profile*%
%ADD41C,0.050000*%
%TD*%
G04 APERTURE END LIST*
D10*
%TO.C,C2*%
X182000000Y-67500000D03*
X185000000Y-67500000D03*
%TD*%
D11*
%TO.C,J1*%
X150500000Y-87500000D03*
X156500000Y-87500000D03*
X156500000Y-98500000D03*
X150500000Y-98500000D03*
%TD*%
D10*
%TO.C,C1*%
X179500000Y-49500000D03*
X182500000Y-49500000D03*
%TD*%
D12*
%TO.C,U1*%
X145000000Y-47000000D03*
X145000000Y-49000000D03*
X145000000Y-51000000D03*
X145000000Y-53000000D03*
X145000000Y-55000000D03*
X145000000Y-57000000D03*
X145000000Y-59000000D03*
X145000000Y-61000000D03*
X161000000Y-61000000D03*
X161000000Y-59000000D03*
X161000000Y-57000000D03*
X161000000Y-55000000D03*
X161000000Y-53000000D03*
X161000000Y-51000000D03*
X161000000Y-49000000D03*
X161000000Y-47000000D03*
%TD*%
D13*
%TO.P,U2,1,IN*%
%TO.N,Net-(U2-IN)*%
X177000000Y-113420000D03*
D14*
%TO.P,U2,2,GND*%
%TO.N,GND*%
X177000000Y-115960000D03*
%TO.P,U2,3,OUT*%
%TO.N,Net-(BZ1-+)*%
X177000000Y-118500000D03*
%TD*%
D15*
%TO.P,A1,1,TX1*%
%TO.N,unconnected-(A1-TX1-Pad1)*%
X119260000Y-73140000D03*
D16*
%TO.P,A1,2,RX1*%
%TO.N,unconnected-(A1-RX1-Pad2)*%
X119260000Y-75680000D03*
%TO.P,A1,3,~{RESET}*%
%TO.N,unconnected-(A1-~{RESET}-Pad3)*%
X119260000Y-78220000D03*
%TO.P,A1,4,GND*%
%TO.N,GND*%
X119260000Y-80760000D03*
%TO.P,A1,5,D2*%
%TO.N,Net-(A1-D2)*%
X119260000Y-83300000D03*
%TO.P,A1,6,D3*%
%TO.N,unconnected-(A1-D3-Pad6)*%
X119260000Y-85840000D03*
%TO.P,A1,7,D4*%
%TO.N,unconnected-(A1-D4-Pad7)*%
X119260000Y-88380000D03*
%TO.P,A1,8,D5*%
%TO.N,Net-(A1-D5)*%
X119260000Y-90920000D03*
%TO.P,A1,9,D6*%
%TO.N,Net-(A1-D6)*%
X119260000Y-93460000D03*
%TO.P,A1,10,D7*%
%TO.N,Net-(A1-D7)*%
X119260000Y-96000000D03*
%TO.P,A1,11,D8*%
%TO.N,Net-(A1-D8)*%
X119260000Y-98540000D03*
%TO.P,A1,12,D9*%
%TO.N,Net-(A1-D9)*%
X119260000Y-101080000D03*
%TO.P,A1,13,D10*%
%TO.N,Net-(A1-D10)*%
X119260000Y-103620000D03*
%TO.P,A1,14,MOSI*%
%TO.N,unconnected-(A1-MOSI-Pad14)*%
X119260000Y-106160000D03*
%TO.P,A1,15,MISO*%
%TO.N,unconnected-(A1-MISO-Pad15)*%
X119260000Y-108700000D03*
%TO.P,A1,16,SCK*%
%TO.N,unconnected-(A1-SCK-Pad16)*%
X134500000Y-108700000D03*
%TO.P,A1,17,3V3*%
%TO.N,Net-(A1-3V3)*%
X134500000Y-106160000D03*
%TO.P,A1,18,AREF*%
%TO.N,unconnected-(A1-AREF-Pad18)*%
X134500000Y-103620000D03*
%TO.P,A1,19,A0*%
%TO.N,unconnected-(A1-A0-Pad19)*%
X134500000Y-101080000D03*
%TO.P,A1,20,A1*%
%TO.N,unconnected-(A1-A1-Pad20)*%
X134500000Y-98540000D03*
%TO.P,A1,21,A2*%
%TO.N,unconnected-(A1-A2-Pad21)*%
X134500000Y-96000000D03*
%TO.P,A1,22,A3*%
%TO.N,unconnected-(A1-A3-Pad22)*%
X134500000Y-93460000D03*
%TO.P,A1,23,SDA/A4*%
%TO.N,unconnected-(A1-SDA{slash}A4-Pad23)*%
X134500000Y-90920000D03*
%TO.P,A1,24,SCL/A5*%
%TO.N,unconnected-(A1-SCL{slash}A5-Pad24)*%
X134500000Y-88380000D03*
%TO.P,A1,25,A6*%
%TO.N,unconnected-(A1-A6-Pad25)*%
X134500000Y-85840000D03*
%TO.P,A1,26,A7*%
%TO.N,unconnected-(A1-A7-Pad26)*%
X134500000Y-83300000D03*
%TO.P,A1,27,+5V*%
%TO.N,unconnected-(A1-+5V-Pad27)*%
X134500000Y-80760000D03*
%TO.P,A1,28,~{RESET}*%
%TO.N,unconnected-(A1-~{RESET}-Pad28)*%
X134500000Y-78220000D03*
%TO.P,A1,29,GND*%
%TO.N,GND*%
X134500000Y-75680000D03*
%TO.P,A1,30,VIN*%
%TO.N,unconnected-(A1-VIN-Pad30)*%
X134500000Y-73140000D03*
%TD*%
D17*
%TO.P,Q1,1,C*%
%TO.N,Net-(BZ1--)*%
X183000000Y-83500000D03*
D18*
%TO.P,Q1,2,B*%
%TO.N,Net-(A1-D5)*%
X184270000Y-83500000D03*
%TO.P,Q1,3,E*%
%TO.N,GND*%
X185540000Y-83500000D03*
%TD*%
D19*
%TO.P,R1,1*%
%TO.N,Net-(A1-D2)*%
X161655000Y-77000000D03*
D16*
%TO.P,R1,2*%
%TO.N,GND*%
X164195000Y-77000000D03*
%TD*%
D20*
%TO.P,J4,1,Pin_1*%
%TO.N,Net-(A1-3V3)*%
X175500000Y-95000000D03*
%TD*%
D21*
%TO.P,BZ1,1,+*%
%TO.N,Net-(BZ1-+)*%
X152700000Y-115000000D03*
D22*
%TO.P,BZ1,2,-*%
%TO.N,Net-(BZ1--)*%
X160300000Y-115000000D03*
%TD*%
D23*
%TO.N,GND*%
X148000000Y-84500000D03*
X141000000Y-76500000D03*
X144000000Y-79500000D03*
X146849943Y-79500000D03*
X155500000Y-50000000D03*
X166500000Y-50000000D03*
%TO.N,Net-(A1-D10)*%
X169000000Y-84500000D03*
%TO.N,Net-(A1-D6)*%
X137000000Y-55000000D03*
X132000000Y-54000000D03*
%TO.N,Net-(A1-D9)*%
X142000000Y-53500000D03*
X146500000Y-53500000D03*
X158000000Y-53500000D03*
X162500000Y-53500000D03*
%TO.N,Net-(A1-D7)*%
X163000000Y-49500000D03*
X165500000Y-44500000D03*
%TO.N,Net-(A1-D8)*%
X166500000Y-41500000D03*
X164000000Y-51000000D03*
%TO.N,Net-(U2-IN)*%
X158500000Y-86500000D03*
X153000000Y-86500000D03*
%TD*%
D24*
%TO.N,GND*%
X141000000Y-76500000D02*
X144075029Y-79575029D01*
X166500000Y-50000000D02*
X155500000Y-50000000D01*
X146849943Y-79500000D02*
X148000000Y-80650057D01*
X155500000Y-50000000D02*
X155424971Y-49924971D01*
X148000000Y-80650057D02*
X148000000Y-84500000D01*
%TO.N,Net-(A1-D10)*%
X169000000Y-84500000D02*
X151000000Y-102500000D01*
X151000000Y-102500000D02*
X120380000Y-102500000D01*
X120380000Y-102500000D02*
X119260000Y-103620000D01*
%TO.N,Net-(A1-D6)*%
X132000000Y-54000000D02*
X136000000Y-54000000D01*
X136000000Y-54000000D02*
X137075029Y-55075029D01*
%TO.N,Net-(A1-D9)*%
X142000000Y-53500000D02*
X146399000Y-53500000D01*
X158000000Y-53500000D02*
X162500000Y-53500000D01*
%TO.N,Net-(A1-D7)*%
X165500000Y-44500000D02*
X165500000Y-47000000D01*
X165500000Y-47000000D02*
X164000000Y-48500000D01*
X164000000Y-48500000D02*
X163000000Y-49500000D01*
%TO.N,Net-(A1-D8)*%
X167101000Y-50248943D02*
X166349943Y-51000000D01*
X166349943Y-51000000D02*
X164000000Y-51000000D01*
X166500000Y-41500000D02*
X167101000Y-42101000D01*
X167101000Y-42101000D02*
X167101000Y-50248943D01*
%TO.N,Net-(U2-IN)*%
X153000000Y-86500000D02*
X158500000Y-86500000D01*
%TD*%
D25*
%TO.C,U2*%
X177000000Y-113420000D03*
D26*
X177000000Y-115960000D03*
X177000000Y-118500000D03*
%TD*%
D27*
%TO.C,A1*%
X119260000Y-73140000D03*
D28*
X119260000Y-75680000D03*
X119260000Y-78220000D03*
X119260000Y-80760000D03*
X119260000Y-83300000D03*
X119260000Y-85840000D03*
X119260000Y-88380000D03*
X119260000Y-90920000D03*
X119260000Y-93460000D03*
X119260000Y-96000000D03*
X119260000Y-98540000D03*
X119260000Y-101080000D03*
X119260000Y-103620000D03*
X119260000Y-106160000D03*
X119260000Y-108700000D03*
X134500000Y-108700000D03*
X134500000Y-106160000D03*
X134500000Y-103620000D03*
X134500000Y-101080000D03*
X134500000Y-98540000D03*
X134500000Y-96000000D03*
X134500000Y-93460000D03*
X134500000Y-90920000D03*
X134500000Y-88380000D03*
X134500000Y-85840000D03*
X134500000Y-83300000D03*
X134500000Y-80760000D03*
X134500000Y-78220000D03*
X134500000Y-75680000D03*
X134500000Y-73140000D03*
%TD*%
D29*
%TO.C,Q1*%
X183000000Y-83500000D03*
D30*
X184270000Y-83500000D03*
X185540000Y-83500000D03*
%TD*%
D31*
%TO.C,R1*%
X161655000Y-77000000D03*
D28*
X164195000Y-77000000D03*
%TD*%
D32*
%TO.C,J1*%
X150600000Y-93000000D03*
D33*
X155000000Y-93000000D03*
%TD*%
D34*
%TO.C,J4*%
X175500000Y-95000000D03*
%TD*%
D35*
%TO.C,BZ1*%
X152700000Y-115000000D03*
D33*
X160300000Y-115000000D03*
%TD*%
D13*
%TO.P,U2,1,IN*%
%TO.N,Net-(U2-IN)*%
X177000000Y-113420000D03*
D14*
%TO.P,U2,2,GND*%
%TO.N,GND*%
X177000000Y-115960000D03*
%TO.P,U2,3,OUT*%
%TO.N,Net-(BZ1-+)*%
X177000000Y-118500000D03*
%TD*%
D15*
%TO.P,A1,1,TX1*%
%TO.N,unconnected-(A1-TX1-Pad1)*%
X119260000Y-73140000D03*
D16*
%TO.P,A1,2,RX1*%
%TO.N,unconnected-(A1-RX1-Pad2)*%
X119260000Y-75680000D03*
%TO.P,A1,3,~{RESET}*%
%TO.N,unconnected-(A1-~{RESET}-Pad3)*%
X119260000Y-78220000D03*
%TO.P,A1,4,GND*%
%TO.N,GND*%
X119260000Y-80760000D03*
%TO.P,A1,5,D2*%
%TO.N,Net-(A1-D2)*%
X119260000Y-83300000D03*
%TO.P,A1,6,D3*%
%TO.N,unconnected-(A1-D3-Pad6)*%
X119260000Y-85840000D03*
%TO.P,A1,7,D4*%
%TO.N,unconnected-(A1-D4-Pad7)*%
X119260000Y-88380000D03*
%TO.P,A1,8,D5*%
%TO.N,Net-(A1-D5)*%
X119260000Y-90920000D03*
%TO.P,A1,9,D6*%
%TO.N,Net-(A1-D6)*%
X119260000Y-93460000D03*
%TO.P,A1,10,D7*%
%TO.N,Net-(A1-D7)*%
X119260000Y-96000000D03*
%TO.P,A1,11,D8*%
%TO.N,Net-(A1-D8)*%
X119260000Y-98540000D03*
%TO.P,A1,12,D9*%
%TO.N,Net-(A1-D9)*%
X119260000Y-101080000D03*
%TO.P,A1,13,D10*%
%TO.N,Net-(A1-D10)*%
X119260000Y-103620000D03*
%TO.P,A1,14,MOSI*%
%TO.N,unconnected-(A1-MOSI-Pad14)*%
X119260000Y-106160000D03*
%TO.P,A1,15,MISO*%
%TO.N,unconnected-(A1-MISO-Pad15)*%
X119260000Y-108700000D03*
%TO.P,A1,16,SCK*%
%TO.N,unconnected-(A1-SCK-Pad16)*%
X134500000Y-108700000D03*
%TO.P,A1,17,3V3*%
%TO.N,Net-(A1-3V3)*%
X134500000Y-106160000D03*
%TO.P,A1,18,AREF*%
%TO.N,unconnected-(A1-AREF-Pad18)*%
X134500000Y-103620000D03*
%TO.P,A1,19,A0*%
%TO.N,unconnected-(A1-A0-Pad19)*%
X134500000Y-101080000D03*
%TO.P,A1,20,A1*%
%TO.N,unconnected-(A1-A1-Pad20)*%
X134500000Y-98540000D03*
%TO.P,A1,21,A2*%
%TO.N,unconnected-(A1-A2-Pad21)*%
X134500000Y-96000000D03*
%TO.P,A1,22,A3*%
%TO.N,unconnected-(A1-A3-Pad22)*%
X134500000Y-93460000D03*
%TO.P,A1,23,SDA/A4*%
%TO.N,unconnected-(A1-SDA{slash}A4-Pad23)*%
X134500000Y-90920000D03*
%TO.P,A1,24,SCL/A5*%
%TO.N,unconnected-(A1-SCL{slash}A5-Pad24)*%
X134500000Y-88380000D03*
%TO.P,A1,25,A6*%
%TO.N,unconnected-(A1-A6-Pad25)*%
X134500000Y-85840000D03*
%TO.P,A1,26,A7*%
%TO.N,unconnected-(A1-A7-Pad26)*%
X134500000Y-83300000D03*
%TO.P,A1,27,+5V*%
%TO.N,unconnected-(A1-+5V-Pad27)*%
X134500000Y-80760000D03*
%TO.P,A1,28,~{RESET}*%
%TO.N,unconnected-(A1-~{RESET}-Pad28)*%
X134500000Y-78220000D03*
%TO.P,A1,29,GND*%
%TO.N,GND*%
X134500000Y-75680000D03*
%TO.P,A1,30,VIN*%
%TO.N,unconnected-(A1-VIN-Pad30)*%
X134500000Y-73140000D03*
%TD*%
D17*
%TO.P,Q1,1,C*%
%TO.N,Net-(BZ1--)*%
X183000000Y-83500000D03*
D18*
%TO.P,Q1,2,B*%
%TO.N,Net-(A1-D5)*%
X184270000Y-83500000D03*
%TO.P,Q1,3,E*%
%TO.N,GND*%
X185540000Y-83500000D03*
%TD*%
D36*
%TO.P,C2,1*%
%TO.N,Net-(U2-IN)*%
X182000000Y-67500000D03*
%TO.P,C2,2*%
%TO.N,GND*%
X185000000Y-67500000D03*
%TD*%
D19*
%TO.P,R1,1*%
%TO.N,Net-(A1-D2)*%
X161655000Y-77000000D03*
D16*
%TO.P,R1,2*%
%TO.N,GND*%
X164195000Y-77000000D03*
%TD*%
D37*
%TO.P,J1,1*%
%TO.N,Net-(U2-IN)*%
X150500000Y-87500000D03*
X156500000Y-87500000D03*
%TO.P,J1,2*%
%TO.N,GND*%
X156500000Y-98500000D03*
%TO.P,J1,3*%
%TO.N,N/C*%
X150500000Y-98500000D03*
%TD*%
D36*
%TO.P,C1,1*%
%TO.N,Net-(BZ1-+)*%
X179500000Y-49500000D03*
%TO.P,C1,2*%
%TO.N,GND*%
X182500000Y-49500000D03*
%TD*%
D20*
%TO.P,J4,1,Pin_1*%
%TO.N,Net-(A1-3V3)*%
X175500000Y-95000000D03*
%TD*%
D21*
%TO.P,BZ1,1,+*%
%TO.N,Net-(BZ1-+)*%
X152700000Y-115000000D03*
D22*
%TO.P,BZ1,2,-*%
%TO.N,Net-(BZ1--)*%
X160300000Y-115000000D03*
%TD*%
D38*
%TO.P,U1,1,GND*%
%TO.N,GND*%
X145000000Y-47000000D03*
%TO.P,U1,2,GND*%
X145000000Y-49000000D03*
%TO.P,U1,3,VDD*%
%TO.N,VCC*%
X145000000Y-51000000D03*
%TO.P,U1,4,~{RESET}*%
%TO.N,Net-(A1-D6)*%
X145000000Y-53000000D03*
%TO.P,U1,5,DIO0*%
%TO.N,unconnected-(U1-DIO0-Pad5)*%
X145000000Y-55000000D03*
%TO.P,U1,6,DIO1*%
%TO.N,unconnected-(U1-DIO1-Pad6)*%
X145000000Y-57000000D03*
%TO.P,U1,7,DIO2*%
%TO.N,unconnected-(U1-DIO2-Pad7)*%
X145000000Y-59000000D03*
%TO.P,U1,8,DIO3*%
%TO.N,unconnected-(U1-DIO3-Pad8)*%
X145000000Y-61000000D03*
%TO.P,U1,9,GND*%
%TO.N,GND*%
X161000000Y-61000000D03*
%TO.P,U1,10,DIO4*%
%TO.N,unconnected-(U1-DIO4-Pad10)*%
X161000000Y-59000000D03*
%TO.P,U1,11,DIO5*%
%TO.N,unconnected-(U1-DIO5-Pad11)*%
X161000000Y-57000000D03*
%TO.P,U1,12,SCK*%
%TO.N,Net-(A1-D10)*%
X161000000Y-55000000D03*
%TO.P,U1,13,MISO*%
%TO.N,Net-(A1-D9)*%
X161000000Y-53000000D03*
%TO.P,U1,14,MOSI*%
%TO.N,Net-(A1-D8)*%
X161000000Y-51000000D03*
%TO.P,U1,15,~{NSS}*%
%TO.N,Net-(A1-D7)*%
X161000000Y-49000000D03*
%TO.P,U1,16,GND*%
%TO.N,GND*%
X161000000Y-47000000D03*
%TD*%
D23*
%TO.N,GND*%
X148000000Y-84500000D03*
X141000000Y-76500000D03*
X144000000Y-79500000D03*
X146849943Y-79500000D03*
X155500000Y-50000000D03*
X166500000Y-50000000D03*
%TO.N,Net-(A1-D10)*%
X169000000Y-84500000D03*
%TO.N,Net-(A1-D6)*%
X137000000Y-55000000D03*
X132000000Y-54000000D03*
%TO.N,Net-(A1-D9)*%
X142000000Y-53500000D03*
X146500000Y-53500000D03*
X158000000Y-53500000D03*
X162500000Y-53500000D03*
%TO.N,Net-(A1-D7)*%
X163000000Y-49500000D03*
X165500000Y-44500000D03*
%TO.N,Net-(A1-D8)*%
X166500000Y-41500000D03*
X164000000Y-51000000D03*
%TO.N,Net-(U2-IN)*%
X158500000Y-86500000D03*
X153000000Y-86500000D03*
%TD*%
D24*
%TO.N,GND*%
X149199000Y-90816050D02*
X134956050Y-105059000D01*
X180069100Y-47000000D02*
X161000000Y-47000000D01*
X134500000Y-75680000D02*
X129420000Y-80760000D01*
X129420000Y-80760000D02*
X119260000Y-80760000D01*
X182500000Y-49500000D02*
X182500000Y-49430900D01*
X168751057Y-85101000D02*
X168399000Y-84748943D01*
X159540000Y-98500000D02*
X159500000Y-98500000D01*
X134500000Y-75680000D02*
X140180000Y-75680000D01*
X155897000Y-85298000D02*
X164195000Y-77000000D01*
X161000000Y-47000000D02*
X161352000Y-47000000D01*
X159500000Y-98500000D02*
X156500000Y-98500000D01*
X164195000Y-80544943D02*
X164195000Y-77000000D01*
X148000000Y-84500000D02*
X149199000Y-85699000D01*
X150739000Y-107261000D02*
X159500000Y-98500000D01*
X140180000Y-75680000D02*
X141000000Y-76500000D01*
X168399000Y-84748943D02*
X164195000Y-80544943D01*
X145000000Y-47000000D02*
X145000000Y-49000000D01*
X169601000Y-55249000D02*
X169601000Y-84748943D01*
X182500000Y-49500000D02*
X185540000Y-52540000D01*
X177000000Y-115960000D02*
X159540000Y-98500000D01*
X133399000Y-105703950D02*
X133399000Y-106616050D01*
X134956050Y-105059000D02*
X134043950Y-105059000D01*
X169601000Y-84748943D02*
X169248943Y-85101000D01*
X169248943Y-85101000D02*
X168751057Y-85101000D01*
X163500000Y-47000000D02*
X166500000Y-50000000D01*
X161352000Y-47000000D02*
X169601000Y-55249000D01*
X149199000Y-85699000D02*
X149199000Y-90816050D01*
X155500000Y-50000000D02*
X154500000Y-49000000D01*
X168399000Y-68399000D02*
X161000000Y-61000000D01*
X134043950Y-107261000D02*
X150739000Y-107261000D01*
X149600000Y-85298000D02*
X155897000Y-85298000D01*
X185540000Y-52540000D02*
X185540000Y-83500000D01*
X154500000Y-49000000D02*
X145000000Y-49000000D01*
X144000000Y-79500000D02*
X146849943Y-79500000D01*
X182500000Y-49430900D02*
X180069100Y-47000000D01*
X149199000Y-85699000D02*
X149600000Y-85298000D01*
X161000000Y-47000000D02*
X163500000Y-47000000D01*
X134043950Y-105059000D02*
X133399000Y-105703950D01*
X133399000Y-106616050D02*
X134043950Y-107261000D01*
X168399000Y-84748943D02*
X168399000Y-68399000D01*
%TO.N,Net-(A1-D10)*%
X161000000Y-55000000D02*
X161352000Y-55000000D01*
X161352000Y-55000000D02*
X169000000Y-62648000D01*
X169000000Y-62648000D02*
X169000000Y-84500000D01*
%TO.N,Net-(A1-D6)*%
X123239000Y-97439000D02*
X123239000Y-103738050D01*
X141500000Y-55000000D02*
X143500000Y-53000000D01*
X116555000Y-105012050D02*
X116555000Y-69445000D01*
X119716050Y-107261000D02*
X118803950Y-107261000D01*
X118803950Y-107261000D02*
X116555000Y-105012050D01*
X137000000Y-55000000D02*
X141500000Y-55000000D01*
X143500000Y-53000000D02*
X145000000Y-53000000D01*
X123239000Y-103738050D02*
X119716050Y-107261000D01*
X116555000Y-69445000D02*
X132000000Y-54000000D01*
X119260000Y-93460000D02*
X123239000Y-97439000D01*
%TO.N,Net-(A1-D2)*%
X118159000Y-84401000D02*
X119260000Y-83300000D01*
X161975000Y-77000000D02*
X161975000Y-77199999D01*
X134956050Y-86941000D02*
X124796050Y-86941000D01*
X119716050Y-92021000D02*
X118803950Y-92021000D01*
X124796050Y-86941000D02*
X119716050Y-92021000D01*
X144897050Y-77000000D02*
X161574000Y-77000000D01*
X118803950Y-92021000D02*
X118159000Y-91376050D01*
X144897050Y-77000000D02*
X134956050Y-86941000D01*
X118159000Y-91376050D02*
X118159000Y-84401000D01*
%TO.N,Net-(A1-3V3)*%
X175500000Y-95000000D02*
X166199000Y-85699000D01*
X154801000Y-86301000D02*
X135102000Y-106000000D01*
X154801000Y-85699000D02*
X154801000Y-86301000D01*
X166199000Y-85699000D02*
X154801000Y-85699000D01*
%TO.N,Net-(A1-D9)*%
X146500000Y-53500000D02*
X158000000Y-53500000D01*
X117758000Y-72242000D02*
X136500000Y-53500000D01*
X136500000Y-53500000D02*
X142000000Y-53500000D01*
X117758000Y-99578000D02*
X117758000Y-72242000D01*
X119260000Y-101080000D02*
X117758000Y-99578000D01*
X161500000Y-53500000D02*
X161000000Y-53000000D01*
X162500000Y-53500000D02*
X161500000Y-53500000D01*
%TO.N,Net-(A1-D5)*%
X134956050Y-84739000D02*
X125441000Y-84739000D01*
X181451000Y-45949000D02*
X159699000Y-45949000D01*
X125441000Y-84739000D02*
X119260000Y-90920000D01*
X185197860Y-84551000D02*
X185882140Y-84551000D01*
X159699000Y-45949000D02*
X159699000Y-59996050D01*
X184270000Y-83623140D02*
X185197860Y-84551000D01*
X186401000Y-84032140D02*
X186401000Y-50899000D01*
X185882140Y-84551000D02*
X186401000Y-84032140D01*
X186401000Y-50899000D02*
X181451000Y-45949000D01*
X159699000Y-59996050D02*
X134956050Y-84739000D01*
X184270000Y-83500000D02*
X184270000Y-83623140D01*
%TO.N,Net-(A1-D7)*%
X118803950Y-104721000D02*
X116956000Y-102873050D01*
X119716050Y-104721000D02*
X118803950Y-104721000D01*
X119260000Y-96000000D02*
X120762000Y-97502000D01*
X163000000Y-49500000D02*
X161500000Y-49500000D01*
X120762000Y-97502000D02*
X120762000Y-103675050D01*
X116956000Y-102873050D02*
X116956000Y-71909800D01*
X167101000Y-42899000D02*
X165500000Y-44500000D01*
X166748943Y-40899000D02*
X167101000Y-41251057D01*
X120762000Y-103675050D02*
X119716050Y-104721000D01*
X167101000Y-41251057D02*
X167101000Y-42899000D01*
X116956000Y-71909800D02*
X147966800Y-40899000D01*
X161500000Y-49500000D02*
X161000000Y-49000000D01*
X147966800Y-40899000D02*
X166748943Y-40899000D01*
%TO.N,Net-(A1-D8)*%
X120361000Y-99641000D02*
X120361000Y-101536050D01*
X147932900Y-41500000D02*
X166500000Y-41500000D01*
X117357000Y-72075900D02*
X147932900Y-41500000D01*
X164000000Y-51000000D02*
X161000000Y-51000000D01*
X117357000Y-100734050D02*
X117357000Y-72075900D01*
X119260000Y-98540000D02*
X120361000Y-99641000D01*
X119716050Y-102181000D02*
X118803950Y-102181000D01*
X118803950Y-102181000D02*
X117357000Y-100734050D01*
X120361000Y-101536050D02*
X119716050Y-102181000D01*
%TO.N,Net-(BZ1-+)*%
X179500000Y-49500000D02*
X179500000Y-116000000D01*
X177000000Y-118500000D02*
X156200000Y-118500000D01*
X179500000Y-116000000D02*
X177000000Y-118500000D01*
X156200000Y-118500000D02*
X152700000Y-115000000D01*
%TO.N,Net-(BZ1--)*%
X177435339Y-119551000D02*
X154649000Y-119551000D01*
X183000000Y-113986339D02*
X177435339Y-119551000D01*
X151399000Y-116301000D02*
X151399000Y-113699000D01*
X158999000Y-113699000D02*
X160300000Y-115000000D01*
X154649000Y-119551000D02*
X151399000Y-116301000D01*
X183000000Y-83500000D02*
X183000000Y-113986339D01*
X151399000Y-113699000D02*
X158999000Y-113699000D01*
%TO.N,Net-(U2-IN)*%
X157500000Y-87500000D02*
X156500000Y-87500000D01*
X152500000Y-86500000D02*
X153000000Y-86500000D01*
X180901000Y-66401000D02*
X180901000Y-48399000D01*
X165801000Y-96801000D02*
X156500000Y-87500000D01*
X178099000Y-94947999D02*
X176245999Y-96801000D01*
X150500000Y-87500000D02*
X151500000Y-86500000D01*
X176245999Y-96801000D02*
X165801000Y-96801000D01*
X178099000Y-48399000D02*
X178099000Y-94947999D01*
X177000000Y-113420000D02*
X177000000Y-108000000D01*
X177000000Y-108000000D02*
X156500000Y-87500000D01*
X180901000Y-48399000D02*
X178099000Y-48399000D01*
X151500000Y-86500000D02*
X152500000Y-86500000D01*
X182000000Y-67500000D02*
X180901000Y-66401000D01*
X158500000Y-86500000D02*
X157500000Y-87500000D01*
%TD*%
%TA.AperFunction,Conductor*%
%TO.N,GND*%
G36*
X178777553Y-95099267D02*
G01*
X178784088Y-95097832D01*
X178810980Y-95107798D01*
X178838769Y-95114890D01*
X178843328Y-95119786D01*
X178849603Y-95122112D01*
X178866837Y-95145035D01*
X178886382Y-95166025D01*
X178888106Y-95173324D01*
X178891591Y-95177958D01*
X178892671Y-95192641D01*
X178899500Y-95221534D01*
X178899500Y-115699902D01*
X178879815Y-115766941D01*
X178863181Y-115787583D01*
X178455421Y-116195343D01*
X178394098Y-116228828D01*
X178324406Y-116223844D01*
X178268473Y-116181972D01*
X178244056Y-116116508D01*
X178245267Y-116088263D01*
X178250000Y-116058381D01*
X178250000Y-115861617D01*
X178219221Y-115667294D01*
X178158418Y-115480164D01*
X178069096Y-115304858D01*
X178043678Y-115269873D01*
X178043677Y-115269873D01*
X177482962Y-115830590D01*
X177465925Y-115767007D01*
X177400099Y-115652993D01*
X177307007Y-115559901D01*
X177192993Y-115494075D01*
X177129409Y-115477037D01*
X177690125Y-114916320D01*
X177690125Y-114916319D01*
X177660530Y-114894818D01*
X177617864Y-114839489D01*
X177611883Y-114769876D01*
X177644488Y-114708080D01*
X177705326Y-114673722D01*
X177733413Y-114670499D01*
X177797872Y-114670499D01*
X177857483Y-114664091D01*
X177992331Y-114613796D01*
X178107546Y-114527546D01*
X178193796Y-114412331D01*
X178244091Y-114277483D01*
X178250500Y-114217873D01*
X178250499Y-112622128D01*
X178244091Y-112562517D01*
X178193796Y-112427669D01*
X178193795Y-112427668D01*
X178193793Y-112427664D01*
X178107547Y-112312455D01*
X178107544Y-112312452D01*
X177992335Y-112226206D01*
X177992328Y-112226202D01*
X177857482Y-112175908D01*
X177857483Y-112175908D01*
X177797883Y-112169501D01*
X177797881Y-112169500D01*
X177797873Y-112169500D01*
X177797865Y-112169500D01*
X177724500Y-112169500D01*
X177657461Y-112149815D01*
X177611706Y-112097011D01*
X177600500Y-112045500D01*
X177600500Y-108089059D01*
X177600501Y-108089046D01*
X177600501Y-107920945D01*
X177600501Y-107920943D01*
X177559577Y-107768215D01*
X177519904Y-107699500D01*
X177480520Y-107631284D01*
X177368716Y-107519480D01*
X177364385Y-107515149D01*
X177364374Y-107515139D01*
X167462416Y-97613181D01*
X167428931Y-97551858D01*
X167433915Y-97482166D01*
X167475787Y-97426233D01*
X167541251Y-97401816D01*
X167550097Y-97401500D01*
X176159330Y-97401500D01*
X176159346Y-97401501D01*
X176166942Y-97401501D01*
X176325053Y-97401501D01*
X176325056Y-97401501D01*
X176477784Y-97360577D01*
X176527903Y-97331639D01*
X176614715Y-97281520D01*
X176726519Y-97169716D01*
X176726519Y-97169714D01*
X176736727Y-97159507D01*
X176736729Y-97159504D01*
X178457506Y-95438727D01*
X178457511Y-95438723D01*
X178467714Y-95428519D01*
X178467716Y-95428519D01*
X178579520Y-95316715D01*
X178633706Y-95222861D01*
X178658577Y-95179784D01*
X178660050Y-95174285D01*
X178666544Y-95162334D01*
X178686783Y-95142009D01*
X178704776Y-95119681D01*
X178711123Y-95117567D01*
X178715846Y-95112826D01*
X178743857Y-95106671D01*
X178771069Y-95097613D01*
X178777553Y-95099267D01*
G37*
%TD.AperFunction*%
%TA.AperFunction,Conductor*%
G36*
X181217942Y-46569185D02*
G01*
X181238584Y-46585819D01*
X182713701Y-48060936D01*
X182747186Y-48122259D01*
X182745300Y-48148638D01*
X182750000Y-48148638D01*
X182750000Y-50800000D01*
X183647828Y-50800000D01*
X183647844Y-50799999D01*
X183707372Y-50793598D01*
X183707379Y-50793596D01*
X183842086Y-50743354D01*
X183842093Y-50743350D01*
X183957187Y-50657190D01*
X183957190Y-50657187D01*
X184043350Y-50542093D01*
X184043354Y-50542086D01*
X184093596Y-50407379D01*
X184093598Y-50407372D01*
X184099999Y-50347844D01*
X184100000Y-50347827D01*
X184100000Y-49746597D01*
X184119685Y-49679558D01*
X184172489Y-49633803D01*
X184241647Y-49623859D01*
X184305203Y-49652884D01*
X184311681Y-49658916D01*
X185764181Y-51111416D01*
X185797666Y-51172739D01*
X185800500Y-51199097D01*
X185800500Y-66076000D01*
X185780815Y-66143039D01*
X185728011Y-66188794D01*
X185676500Y-66200000D01*
X185250000Y-66200000D01*
X185250000Y-68800000D01*
X185676500Y-68800000D01*
X185743539Y-68819685D01*
X185789294Y-68872489D01*
X185800500Y-68924000D01*
X185800500Y-82212380D01*
X185790000Y-82248138D01*
X185790000Y-83219670D01*
X185770255Y-83199925D01*
X185684745Y-83150556D01*
X185589370Y-83125000D01*
X185490630Y-83125000D01*
X185395255Y-83150556D01*
X185309745Y-83199925D01*
X185295500Y-83214170D01*
X185295500Y-83173996D01*
X185295499Y-83173995D01*
X185292383Y-83158326D01*
X185290000Y-83134134D01*
X185290000Y-82279646D01*
X185289999Y-82279645D01*
X185241022Y-82289388D01*
X185241015Y-82289390D01*
X185054481Y-82366654D01*
X185054479Y-82366655D01*
X184974337Y-82420204D01*
X184907660Y-82441081D01*
X184840280Y-82422596D01*
X184836558Y-82420204D01*
X184755754Y-82366212D01*
X184569127Y-82288909D01*
X184569119Y-82288907D01*
X184371007Y-82249500D01*
X184371003Y-82249500D01*
X184168997Y-82249500D01*
X184168992Y-82249500D01*
X183970880Y-82288907D01*
X183970868Y-82288910D01*
X183890198Y-82322325D01*
X183820729Y-82329794D01*
X183775342Y-82310036D01*
X183775114Y-82310454D01*
X183770447Y-82307905D01*
X183768432Y-82307028D01*
X183767331Y-82306204D01*
X183767330Y-82306203D01*
X183767328Y-82306202D01*
X183632482Y-82255908D01*
X183632483Y-82255908D01*
X183572883Y-82249501D01*
X183572881Y-82249500D01*
X183572873Y-82249500D01*
X183572864Y-82249500D01*
X182427129Y-82249500D01*
X182427123Y-82249501D01*
X182367516Y-82255908D01*
X182232671Y-82306202D01*
X182232664Y-82306206D01*
X182117455Y-82392452D01*
X182117452Y-82392455D01*
X182031206Y-82507664D01*
X182031202Y-82507671D01*
X181980908Y-82642517D01*
X181974501Y-82702116D01*
X181974500Y-82702135D01*
X181974500Y-84297870D01*
X181974501Y-84297876D01*
X181980908Y-84357483D01*
X182031202Y-84492328D01*
X182031206Y-84492335D01*
X182117452Y-84607544D01*
X182117455Y-84607547D01*
X182232664Y-84693793D01*
X182232671Y-84693797D01*
X182318833Y-84725933D01*
X182374766Y-84767804D01*
X182399184Y-84833268D01*
X182399500Y-84842115D01*
X182399500Y-113686242D01*
X182379815Y-113753281D01*
X182363181Y-113773923D01*
X180312181Y-115824923D01*
X180250858Y-115858408D01*
X180181166Y-115853424D01*
X180125233Y-115811552D01*
X180100816Y-115746088D01*
X180100500Y-115737242D01*
X180100500Y-66674535D01*
X180102107Y-66669062D01*
X180100995Y-66663468D01*
X180111842Y-66635907D01*
X180120185Y-66607496D01*
X180124494Y-66603761D01*
X180126584Y-66598453D01*
X180150613Y-66581129D01*
X180172989Y-66561741D01*
X180178632Y-66560929D01*
X180183261Y-66557593D01*
X180212836Y-66556011D01*
X180242147Y-66551797D01*
X180247335Y-66554166D01*
X180253031Y-66553862D01*
X180278761Y-66568518D01*
X180305703Y-66580822D01*
X180310084Y-66586359D01*
X180313743Y-66588444D01*
X180323436Y-66603237D01*
X180334383Y-66617074D01*
X180340187Y-66628173D01*
X180341423Y-66632785D01*
X180352591Y-66652128D01*
X180353895Y-66654386D01*
X180382887Y-66704602D01*
X180399500Y-66766602D01*
X180399500Y-68347870D01*
X180399501Y-68347876D01*
X180405908Y-68407483D01*
X180456202Y-68542328D01*
X180456206Y-68542335D01*
X180542452Y-68657544D01*
X180542455Y-68657547D01*
X180657664Y-68743793D01*
X180657671Y-68743797D01*
X180792517Y-68794091D01*
X180792516Y-68794091D01*
X180799444Y-68794835D01*
X180852127Y-68800500D01*
X183147872Y-68800499D01*
X183207483Y-68794091D01*
X183342331Y-68743796D01*
X183426105Y-68681082D01*
X183491569Y-68656665D01*
X183559842Y-68671516D01*
X183574727Y-68681082D01*
X183657910Y-68743352D01*
X183657913Y-68743354D01*
X183792620Y-68793596D01*
X183792627Y-68793598D01*
X183852155Y-68799999D01*
X183852172Y-68800000D01*
X184750000Y-68800000D01*
X184750000Y-66200000D01*
X183852155Y-66200000D01*
X183792627Y-66206401D01*
X183792620Y-66206403D01*
X183657913Y-66256645D01*
X183657910Y-66256647D01*
X183574727Y-66318918D01*
X183509262Y-66343335D01*
X183440989Y-66328483D01*
X183426106Y-66318918D01*
X183342331Y-66256204D01*
X183342328Y-66256202D01*
X183207482Y-66205908D01*
X183207483Y-66205908D01*
X183147883Y-66199501D01*
X183147881Y-66199500D01*
X183147873Y-66199500D01*
X183147865Y-66199500D01*
X181625500Y-66199500D01*
X181558461Y-66179815D01*
X181512706Y-66127011D01*
X181501500Y-66075500D01*
X181501500Y-50924000D01*
X181521185Y-50856961D01*
X181573989Y-50811206D01*
X181625500Y-50800000D01*
X182250000Y-50800000D01*
X182250000Y-48200000D01*
X181551096Y-48200000D01*
X181484057Y-48180315D01*
X181443709Y-48138000D01*
X181381520Y-48030284D01*
X181269716Y-47918480D01*
X181269714Y-47918479D01*
X181269709Y-47918475D01*
X181132790Y-47839426D01*
X181132786Y-47839424D01*
X181132784Y-47839423D01*
X180980057Y-47798500D01*
X178178057Y-47798500D01*
X178019943Y-47798500D01*
X177867216Y-47839423D01*
X177867209Y-47839426D01*
X177730290Y-47918475D01*
X177730282Y-47918481D01*
X177618481Y-48030282D01*
X177618475Y-48030290D01*
X177539426Y-48167209D01*
X177539423Y-48167216D01*
X177498500Y-48319943D01*
X177498500Y-93997730D01*
X177478815Y-94064769D01*
X177426011Y-94110524D01*
X177356853Y-94120468D01*
X177293297Y-94091443D01*
X177267113Y-94059730D01*
X177166924Y-93886196D01*
X177007281Y-93678148D01*
X177007274Y-93678140D01*
X176821860Y-93492726D01*
X176821851Y-93492718D01*
X176613803Y-93333075D01*
X176386700Y-93201958D01*
X176386690Y-93201953D01*
X176144428Y-93101605D01*
X176144421Y-93101603D01*
X176144419Y-93101602D01*
X175891116Y-93033730D01*
X175833339Y-93026123D01*
X175631127Y-92999500D01*
X175631120Y-92999500D01*
X175368880Y-92999500D01*
X175368872Y-92999500D01*
X175137772Y-93029926D01*
X175108884Y-93033730D01*
X174867468Y-93098417D01*
X174855581Y-93101602D01*
X174855565Y-93101607D01*
X174645929Y-93188441D01*
X174576460Y-93195910D01*
X174513981Y-93164635D01*
X174510796Y-93161561D01*
X166686590Y-85337355D01*
X166686588Y-85337352D01*
X166567717Y-85218481D01*
X166567716Y-85218480D01*
X166451704Y-85151501D01*
X166430785Y-85139423D01*
X166278057Y-85098499D01*
X166119943Y-85098499D01*
X166112347Y-85098499D01*
X166112331Y-85098500D01*
X154721943Y-85098500D01*
X154569216Y-85139423D01*
X154569209Y-85139426D01*
X154432290Y-85218475D01*
X154432282Y-85218481D01*
X154320481Y-85330282D01*
X154320475Y-85330290D01*
X154241426Y-85467209D01*
X154241423Y-85467216D01*
X154200500Y-85619943D01*
X154200500Y-86000903D01*
X154180815Y-86067942D01*
X154164181Y-86088584D01*
X153964379Y-86288385D01*
X153903056Y-86321870D01*
X153833364Y-86316886D01*
X153777431Y-86275014D01*
X153762141Y-86248165D01*
X153709394Y-86120821D01*
X153709392Y-86120818D01*
X153709390Y-86120814D01*
X153621789Y-85989711D01*
X153621786Y-85989707D01*
X153510292Y-85878213D01*
X153510288Y-85878210D01*
X153379185Y-85790609D01*
X153379172Y-85790602D01*
X153233501Y-85730264D01*
X153233489Y-85730261D01*
X153078845Y-85699500D01*
X153078842Y-85699500D01*
X152921158Y-85699500D01*
X152921155Y-85699500D01*
X152766510Y-85730261D01*
X152766498Y-85730264D01*
X152620827Y-85790602D01*
X152620814Y-85790609D01*
X152489125Y-85878602D01*
X152422447Y-85899480D01*
X152420234Y-85899500D01*
X152082791Y-85899500D01*
X152015752Y-85879815D01*
X151969997Y-85827011D01*
X151966609Y-85818833D01*
X151943797Y-85757671D01*
X151943793Y-85757664D01*
X151857547Y-85642455D01*
X151857544Y-85642452D01*
X151742335Y-85556206D01*
X151742328Y-85556202D01*
X151607482Y-85505908D01*
X151607483Y-85505908D01*
X151547883Y-85499501D01*
X151547881Y-85499500D01*
X151547873Y-85499500D01*
X151547864Y-85499500D01*
X149452129Y-85499500D01*
X149452123Y-85499501D01*
X149392516Y-85505908D01*
X149257671Y-85556202D01*
X149257664Y-85556206D01*
X149142455Y-85642452D01*
X149142452Y-85642455D01*
X149056206Y-85757664D01*
X149056202Y-85757671D01*
X149005908Y-85892517D01*
X148999501Y-85952116D01*
X148999500Y-85952135D01*
X148999500Y-89047870D01*
X148999501Y-89047876D01*
X149005908Y-89107483D01*
X149056202Y-89242328D01*
X149056206Y-89242335D01*
X149142452Y-89357544D01*
X149142455Y-89357547D01*
X149257664Y-89443793D01*
X149257671Y-89443797D01*
X149392517Y-89494091D01*
X149392516Y-89494091D01*
X149399444Y-89494835D01*
X149452127Y-89500500D01*
X150452902Y-89500499D01*
X150519941Y-89520183D01*
X150565696Y-89572987D01*
X150575640Y-89642146D01*
X150546615Y-89705702D01*
X150540583Y-89712180D01*
X135813854Y-104438909D01*
X135752531Y-104472394D01*
X135682839Y-104467410D01*
X135626906Y-104425538D01*
X135602489Y-104360074D01*
X135615688Y-104294934D01*
X135705220Y-104119219D01*
X135768477Y-103924534D01*
X135800500Y-103722352D01*
X135800500Y-103517648D01*
X135768477Y-103315466D01*
X135705220Y-103120781D01*
X135705218Y-103120778D01*
X135705218Y-103120776D01*
X135662788Y-103037504D01*
X135612287Y-102938390D01*
X135604556Y-102927749D01*
X135491971Y-102772786D01*
X135347213Y-102628028D01*
X135181614Y-102507715D01*
X135175006Y-102504348D01*
X135088917Y-102460483D01*
X135038123Y-102412511D01*
X135021328Y-102344690D01*
X135043865Y-102278555D01*
X135088917Y-102239516D01*
X135181610Y-102192287D01*
X135202770Y-102176913D01*
X135347213Y-102071971D01*
X135347215Y-102071968D01*
X135347219Y-102071966D01*
X135491966Y-101927219D01*
X135491968Y-101927215D01*
X135491971Y-101927213D01*
X135544732Y-101854590D01*
X135612287Y-101761610D01*
X135705220Y-101579219D01*
X135768477Y-101384534D01*
X135800500Y-101182352D01*
X135800500Y-100977648D01*
X135768477Y-100775466D01*
X135705220Y-100580781D01*
X135705218Y-100580778D01*
X135705218Y-100580776D01*
X135660797Y-100493596D01*
X135612287Y-100398390D01*
X135582613Y-100357547D01*
X135491971Y-100232786D01*
X135347213Y-100088028D01*
X135181614Y-99967715D01*
X135175006Y-99964348D01*
X135088917Y-99920483D01*
X135038123Y-99872511D01*
X135021328Y-99804690D01*
X135043865Y-99738555D01*
X135088917Y-99699516D01*
X135181610Y-99652287D01*
X135202770Y-99636913D01*
X135347213Y-99531971D01*
X135347215Y-99531968D01*
X135347219Y-99531966D01*
X135491966Y-99387219D01*
X135491968Y-99387215D01*
X135491971Y-99387213D01*
X135544732Y-99314590D01*
X135612287Y-99221610D01*
X135705220Y-99039219D01*
X135768477Y-98844534D01*
X135800500Y-98642352D01*
X135800500Y-98437648D01*
X135768477Y-98235466D01*
X135705220Y-98040781D01*
X135705218Y-98040778D01*
X135705218Y-98040776D01*
X135671503Y-97974607D01*
X135612287Y-97858390D01*
X135604556Y-97847749D01*
X135491971Y-97692786D01*
X135347213Y-97548028D01*
X135181614Y-97427715D01*
X135130164Y-97401500D01*
X135088917Y-97380483D01*
X135038123Y-97332511D01*
X135021328Y-97264690D01*
X135043865Y-97198555D01*
X135088917Y-97159516D01*
X135181610Y-97112287D01*
X135202770Y-97096913D01*
X135347213Y-96991971D01*
X135347215Y-96991968D01*
X135347219Y-96991966D01*
X135491966Y-96847219D01*
X135491968Y-96847215D01*
X135491971Y-96847213D01*
X135557031Y-96757664D01*
X135612287Y-96681610D01*
X135705220Y-96499219D01*
X135768477Y-96304534D01*
X135800500Y-96102352D01*
X135800500Y-95897648D01*
X135788426Y-95821416D01*
X135768477Y-95695465D01*
X135705218Y-95500776D01*
X135668401Y-95428519D01*
X135612287Y-95318390D01*
X135604556Y-95307749D01*
X135491971Y-95152786D01*
X135347213Y-95008028D01*
X135181614Y-94887715D01*
X135144648Y-94868880D01*
X135088917Y-94840483D01*
X135038123Y-94792511D01*
X135021328Y-94724690D01*
X135043865Y-94658555D01*
X135088917Y-94619516D01*
X135181610Y-94572287D01*
X135202770Y-94556913D01*
X135347213Y-94451971D01*
X135347215Y-94451968D01*
X135347219Y-94451966D01*
X135491966Y-94307219D01*
X135491968Y-94307215D01*
X135491971Y-94307213D01*
X135561110Y-94212049D01*
X135612287Y-94141610D01*
X135705220Y-93959219D01*
X135768477Y-93764534D01*
X135800500Y-93562352D01*
X135800500Y-93357648D01*
X135769929Y-93164635D01*
X135768477Y-93155465D01*
X135739127Y-93065137D01*
X135705220Y-92960781D01*
X135705218Y-92960778D01*
X135705218Y-92960776D01*
X135671503Y-92894607D01*
X135612287Y-92778390D01*
X135604556Y-92767749D01*
X135491971Y-92612786D01*
X135347213Y-92468028D01*
X135181614Y-92347715D01*
X135175006Y-92344348D01*
X135088917Y-92300483D01*
X135038123Y-92252511D01*
X135021328Y-92184690D01*
X135043865Y-92118555D01*
X135088917Y-92079516D01*
X135181610Y-92032287D01*
X135308182Y-91940328D01*
X135347213Y-91911971D01*
X135347215Y-91911968D01*
X135347219Y-91911966D01*
X135491966Y-91767219D01*
X135491968Y-91767215D01*
X135491971Y-91767213D01*
X135557505Y-91677011D01*
X135612287Y-91601610D01*
X135705220Y-91419219D01*
X135768477Y-91224534D01*
X135800500Y-91022352D01*
X135800500Y-90817648D01*
X135768477Y-90615466D01*
X135705220Y-90420781D01*
X135705218Y-90420778D01*
X135705218Y-90420776D01*
X135671503Y-90354607D01*
X135612287Y-90238390D01*
X135604556Y-90227749D01*
X135491971Y-90072786D01*
X135347213Y-89928028D01*
X135181614Y-89807715D01*
X135175006Y-89804348D01*
X135088917Y-89760483D01*
X135038123Y-89712511D01*
X135021328Y-89644690D01*
X135043865Y-89578555D01*
X135088917Y-89539516D01*
X135181610Y-89492287D01*
X135202770Y-89476913D01*
X135347213Y-89371971D01*
X135347215Y-89371968D01*
X135347219Y-89371966D01*
X135491966Y-89227219D01*
X135491968Y-89227215D01*
X135491971Y-89227213D01*
X135544732Y-89154590D01*
X135612287Y-89061610D01*
X135705220Y-88879219D01*
X135768477Y-88684534D01*
X135800500Y-88482352D01*
X135800500Y-88277648D01*
X135781970Y-88160655D01*
X135768477Y-88075465D01*
X135705218Y-87880776D01*
X135624212Y-87721795D01*
X135612287Y-87698390D01*
X135550967Y-87613989D01*
X135491971Y-87532786D01*
X135440416Y-87481231D01*
X135436082Y-87473294D01*
X135428842Y-87467876D01*
X135419599Y-87443108D01*
X135406931Y-87419908D01*
X135407576Y-87410888D01*
X135404414Y-87402415D01*
X135410029Y-87376581D01*
X135411915Y-87350216D01*
X135417726Y-87341171D01*
X135419255Y-87334140D01*
X135440359Y-87305949D01*
X135440402Y-87305883D01*
X135443583Y-87302700D01*
X135446772Y-87299511D01*
X135446775Y-87299510D01*
X135446778Y-87299505D01*
X145109466Y-77636819D01*
X145170789Y-77603334D01*
X145197147Y-77600500D01*
X160425398Y-77600500D01*
X160492437Y-77620185D01*
X160535883Y-77668205D01*
X160542715Y-77681614D01*
X160663028Y-77847213D01*
X160807786Y-77991971D01*
X160962749Y-78104556D01*
X160973390Y-78112287D01*
X161089607Y-78171503D01*
X161155776Y-78205218D01*
X161155778Y-78205218D01*
X161155781Y-78205220D01*
X161260137Y-78239127D01*
X161350465Y-78268477D01*
X161451557Y-78284488D01*
X161552648Y-78300500D01*
X161552649Y-78300500D01*
X161757351Y-78300500D01*
X161757352Y-78300500D01*
X161959534Y-78268477D01*
X162154219Y-78205220D01*
X162336610Y-78112287D01*
X162429590Y-78044732D01*
X162502213Y-77991971D01*
X162502215Y-77991968D01*
X162502219Y-77991966D01*
X162646966Y-77847219D01*
X162646968Y-77847215D01*
X162646971Y-77847213D01*
X162767284Y-77681614D01*
X162767283Y-77681614D01*
X162767287Y-77681610D01*
X162814795Y-77588369D01*
X162862770Y-77537574D01*
X162930591Y-77520779D01*
X162996725Y-77543316D01*
X163035765Y-77588370D01*
X163083140Y-77681349D01*
X163203417Y-77846894D01*
X163203417Y-77846895D01*
X163348104Y-77991582D01*
X163513650Y-78111859D01*
X163695968Y-78204754D01*
X163890578Y-78267988D01*
X163945000Y-78276607D01*
X163945000Y-77315686D01*
X163949394Y-77320080D01*
X164040606Y-77372741D01*
X164142339Y-77400000D01*
X164247661Y-77400000D01*
X164349394Y-77372741D01*
X164440606Y-77320080D01*
X164445000Y-77315686D01*
X164445000Y-78276606D01*
X164499421Y-78267988D01*
X164694031Y-78204754D01*
X164876349Y-78111859D01*
X165041894Y-77991582D01*
X165041895Y-77991582D01*
X165186582Y-77846895D01*
X165186582Y-77846894D01*
X165306859Y-77681349D01*
X165399755Y-77499029D01*
X165462990Y-77304413D01*
X165471609Y-77250000D01*
X164510686Y-77250000D01*
X164515080Y-77245606D01*
X164567741Y-77154394D01*
X164595000Y-77052661D01*
X164595000Y-76947339D01*
X164567741Y-76845606D01*
X164515080Y-76754394D01*
X164510686Y-76750000D01*
X165471609Y-76750000D01*
X165462990Y-76695586D01*
X165399755Y-76500970D01*
X165306859Y-76318650D01*
X165186582Y-76153105D01*
X165186582Y-76153104D01*
X165041895Y-76008417D01*
X164876349Y-75888140D01*
X164694029Y-75795244D01*
X164499413Y-75732009D01*
X164445000Y-75723390D01*
X164445000Y-76684314D01*
X164440606Y-76679920D01*
X164349394Y-76627259D01*
X164247661Y-76600000D01*
X164142339Y-76600000D01*
X164040606Y-76627259D01*
X163949394Y-76679920D01*
X163945000Y-76684314D01*
X163945000Y-75723390D01*
X163890586Y-75732009D01*
X163695970Y-75795244D01*
X163513650Y-75888140D01*
X163348105Y-76008417D01*
X163348104Y-76008417D01*
X163203417Y-76153104D01*
X163203417Y-76153105D01*
X163083140Y-76318650D01*
X163035765Y-76411629D01*
X162987790Y-76462425D01*
X162919969Y-76479220D01*
X162853834Y-76456682D01*
X162814795Y-76411629D01*
X162789310Y-76361613D01*
X162767287Y-76318390D01*
X162759556Y-76307749D01*
X162646971Y-76152786D01*
X162502213Y-76008028D01*
X162336613Y-75887715D01*
X162336612Y-75887714D01*
X162336610Y-75887713D01*
X162279653Y-75858691D01*
X162154223Y-75794781D01*
X161959534Y-75731522D01*
X161784995Y-75703878D01*
X161757352Y-75699500D01*
X161552648Y-75699500D01*
X161528329Y-75703351D01*
X161350465Y-75731522D01*
X161155776Y-75794781D01*
X160973386Y-75887715D01*
X160807786Y-76008028D01*
X160663028Y-76152786D01*
X160542715Y-76318385D01*
X160535883Y-76331795D01*
X160487909Y-76382591D01*
X160425398Y-76399500D01*
X144983719Y-76399500D01*
X144983703Y-76399499D01*
X144976107Y-76399499D01*
X144817993Y-76399499D01*
X144710637Y-76428265D01*
X144665260Y-76440424D01*
X144665259Y-76440425D01*
X144615146Y-76469359D01*
X144615145Y-76469360D01*
X144598067Y-76479220D01*
X144528335Y-76519479D01*
X144528332Y-76519481D01*
X144416528Y-76631286D01*
X135826514Y-85221299D01*
X135806728Y-85232102D01*
X135789590Y-85246754D01*
X135776651Y-85248526D01*
X135765191Y-85254784D01*
X135742702Y-85253175D01*
X135720366Y-85256235D01*
X135708525Y-85250731D01*
X135695499Y-85249800D01*
X135677449Y-85236287D01*
X135657006Y-85226786D01*
X135646222Y-85212911D01*
X135639566Y-85207928D01*
X135634072Y-85199959D01*
X135630978Y-85195073D01*
X135612287Y-85158390D01*
X135576936Y-85109733D01*
X135574825Y-85106400D01*
X135566254Y-85076471D01*
X135555788Y-85047140D01*
X135556713Y-85043158D01*
X135555589Y-85039230D01*
X135564558Y-85009421D01*
X135571612Y-84979086D01*
X135575046Y-84974565D01*
X135575721Y-84972324D01*
X135578656Y-84969814D01*
X135591901Y-84952382D01*
X159288319Y-61255965D01*
X159349642Y-61222480D01*
X159419334Y-61227464D01*
X159475267Y-61269336D01*
X159499684Y-61334800D01*
X159500000Y-61343646D01*
X159500000Y-61797844D01*
X159506401Y-61857372D01*
X159506403Y-61857379D01*
X159556645Y-61992086D01*
X159556649Y-61992093D01*
X159642809Y-62107187D01*
X159642812Y-62107190D01*
X159757906Y-62193350D01*
X159757913Y-62193354D01*
X159892620Y-62243596D01*
X159892627Y-62243598D01*
X159952155Y-62249999D01*
X159952172Y-62250000D01*
X160750000Y-62250000D01*
X161250000Y-62250000D01*
X162047828Y-62250000D01*
X162047844Y-62249999D01*
X162107372Y-62243598D01*
X162107379Y-62243596D01*
X162242086Y-62193354D01*
X162242093Y-62193350D01*
X162357187Y-62107190D01*
X162357190Y-62107187D01*
X162443350Y-61992093D01*
X162443354Y-61992086D01*
X162493596Y-61857379D01*
X162493598Y-61857372D01*
X162499999Y-61797844D01*
X162500000Y-61797827D01*
X162500000Y-61250000D01*
X161250000Y-61250000D01*
X161250000Y-62250000D01*
X160750000Y-62250000D01*
X160750000Y-61124000D01*
X160769685Y-61056961D01*
X160822489Y-61011206D01*
X160874000Y-61000000D01*
X161000000Y-61000000D01*
X161000000Y-60874000D01*
X161019685Y-60806961D01*
X161072489Y-60761206D01*
X161124000Y-60750000D01*
X162500000Y-60750000D01*
X162500000Y-60202172D01*
X162499999Y-60202155D01*
X162493598Y-60142627D01*
X162493596Y-60142620D01*
X162456831Y-60044047D01*
X162451847Y-59974356D01*
X162456827Y-59957390D01*
X162494091Y-59857483D01*
X162500500Y-59797873D01*
X162500499Y-58202128D01*
X162494091Y-58142517D01*
X162457096Y-58043330D01*
X162452113Y-57973642D01*
X162457092Y-57956680D01*
X162494091Y-57857483D01*
X162500500Y-57797873D01*
X162500499Y-57297094D01*
X162520183Y-57230057D01*
X162572987Y-57184302D01*
X162642146Y-57174358D01*
X162705702Y-57203383D01*
X162712180Y-57209415D01*
X168363181Y-62860416D01*
X168396666Y-62921739D01*
X168399500Y-62948097D01*
X168399500Y-83920234D01*
X168379815Y-83987273D01*
X168378602Y-83989125D01*
X168290609Y-84120814D01*
X168290602Y-84120827D01*
X168230264Y-84266498D01*
X168230261Y-84266510D01*
X168199500Y-84421153D01*
X168199500Y-84578846D01*
X168230261Y-84733489D01*
X168230264Y-84733501D01*
X168290602Y-84879172D01*
X168290609Y-84879185D01*
X168378210Y-85010288D01*
X168378213Y-85010292D01*
X168489707Y-85121786D01*
X168489711Y-85121789D01*
X168620814Y-85209390D01*
X168620827Y-85209397D01*
X168718370Y-85249800D01*
X168766503Y-85269737D01*
X168921153Y-85300499D01*
X168921156Y-85300500D01*
X168921158Y-85300500D01*
X169078844Y-85300500D01*
X169078845Y-85300499D01*
X169233497Y-85269737D01*
X169379179Y-85209394D01*
X169510289Y-85121789D01*
X169621789Y-85010289D01*
X169709394Y-84879179D01*
X169769737Y-84733497D01*
X169800500Y-84578842D01*
X169800500Y-84421158D01*
X169800500Y-84421155D01*
X169800499Y-84421153D01*
X169787834Y-84357483D01*
X169769737Y-84266503D01*
X169745653Y-84208359D01*
X169709397Y-84120827D01*
X169709390Y-84120814D01*
X169621398Y-83989125D01*
X169600520Y-83922447D01*
X169600500Y-83920234D01*
X169600500Y-62568945D01*
X169600500Y-62568943D01*
X169559577Y-62416216D01*
X169559573Y-62416209D01*
X169480524Y-62279290D01*
X169480521Y-62279286D01*
X169480520Y-62279284D01*
X169368716Y-62167480D01*
X169368715Y-62167479D01*
X169364385Y-62163149D01*
X169364374Y-62163139D01*
X162536818Y-55335583D01*
X162503333Y-55274260D01*
X162500499Y-55247902D01*
X162500499Y-54417847D01*
X162520184Y-54350808D01*
X162572988Y-54305053D01*
X162600307Y-54296230D01*
X162733497Y-54269737D01*
X162879179Y-54209394D01*
X163010289Y-54121789D01*
X163121789Y-54010289D01*
X163209394Y-53879179D01*
X163269737Y-53733497D01*
X163300500Y-53578842D01*
X163300500Y-53421158D01*
X163300500Y-53421155D01*
X163300499Y-53421153D01*
X163274531Y-53290606D01*
X163269737Y-53266503D01*
X163269735Y-53266498D01*
X163209397Y-53120827D01*
X163209390Y-53120814D01*
X163121789Y-52989711D01*
X163121786Y-52989707D01*
X163010292Y-52878213D01*
X163010288Y-52878210D01*
X162879185Y-52790609D01*
X162879172Y-52790602D01*
X162733501Y-52730264D01*
X162733491Y-52730261D01*
X162600307Y-52703769D01*
X162538396Y-52671384D01*
X162503822Y-52610668D01*
X162500499Y-52582152D01*
X162500499Y-52202129D01*
X162500498Y-52202123D01*
X162500497Y-52202116D01*
X162494091Y-52142517D01*
X162457096Y-52043330D01*
X162452113Y-51973642D01*
X162457092Y-51956680D01*
X162494091Y-51857483D01*
X162500500Y-51797873D01*
X162500500Y-51724500D01*
X162520185Y-51657461D01*
X162572989Y-51611706D01*
X162624500Y-51600500D01*
X163420234Y-51600500D01*
X163487273Y-51620185D01*
X163489125Y-51621398D01*
X163620814Y-51709390D01*
X163620827Y-51709397D01*
X163766498Y-51769735D01*
X163766503Y-51769737D01*
X163908002Y-51797883D01*
X163921153Y-51800499D01*
X163921156Y-51800500D01*
X163921158Y-51800500D01*
X164078844Y-51800500D01*
X164078845Y-51800499D01*
X164233497Y-51769737D01*
X164379179Y-51709394D01*
X164510289Y-51621789D01*
X164621789Y-51510289D01*
X164709394Y-51379179D01*
X164769737Y-51233497D01*
X164800500Y-51078842D01*
X164800500Y-50921158D01*
X164800500Y-50921155D01*
X164800499Y-50921153D01*
X164776400Y-50799999D01*
X164769737Y-50766503D01*
X164769735Y-50766498D01*
X164709397Y-50620827D01*
X164709390Y-50620814D01*
X164621789Y-50489711D01*
X164621786Y-50489707D01*
X164510292Y-50378213D01*
X164510288Y-50378210D01*
X164379185Y-50290609D01*
X164379172Y-50290602D01*
X164233501Y-50230264D01*
X164233489Y-50230261D01*
X164078845Y-50199500D01*
X164078842Y-50199500D01*
X163921158Y-50199500D01*
X163921155Y-50199500D01*
X163766510Y-50230261D01*
X163766502Y-50230263D01*
X163719878Y-50249575D01*
X163650408Y-50257042D01*
X163587930Y-50225766D01*
X163552278Y-50165677D01*
X163554773Y-50095852D01*
X163584747Y-50047331D01*
X163621786Y-50010292D01*
X163621789Y-50010289D01*
X163709394Y-49879179D01*
X163769737Y-49733497D01*
X163800500Y-49578842D01*
X163800500Y-49421158D01*
X163800500Y-49421155D01*
X163800499Y-49421153D01*
X163769738Y-49266510D01*
X163769737Y-49266503D01*
X163762901Y-49250000D01*
X163709397Y-49120827D01*
X163709390Y-49120814D01*
X163621789Y-48989711D01*
X163621786Y-48989707D01*
X163510292Y-48878213D01*
X163510288Y-48878210D01*
X163379185Y-48790609D01*
X163379172Y-48790602D01*
X163233501Y-48730264D01*
X163233489Y-48730261D01*
X163078845Y-48699500D01*
X163078842Y-48699500D01*
X162921158Y-48699500D01*
X162921155Y-48699500D01*
X162766510Y-48730261D01*
X162766498Y-48730264D01*
X162671951Y-48769427D01*
X162602482Y-48776896D01*
X162540003Y-48745621D01*
X162504351Y-48685531D01*
X162500499Y-48654866D01*
X162500499Y-48202129D01*
X162500498Y-48202123D01*
X162494091Y-48142516D01*
X162456831Y-48042618D01*
X162451847Y-47972927D01*
X162456831Y-47955951D01*
X162493597Y-47857376D01*
X162493598Y-47857372D01*
X162499999Y-47797844D01*
X162500000Y-47797827D01*
X162500000Y-47250000D01*
X161124000Y-47250000D01*
X161056961Y-47230315D01*
X161011206Y-47177511D01*
X161000000Y-47126000D01*
X161000000Y-46874000D01*
X161019685Y-46806961D01*
X161072489Y-46761206D01*
X161124000Y-46750000D01*
X162500000Y-46750000D01*
X162500000Y-46673500D01*
X162519685Y-46606461D01*
X162572489Y-46560706D01*
X162624000Y-46549500D01*
X181150903Y-46549500D01*
X181217942Y-46569185D01*
G37*
%TD.AperFunction*%
%TA.AperFunction,Conductor*%
G36*
X165938377Y-42105827D02*
G01*
X165957287Y-42106165D01*
X165985504Y-42119665D01*
X165987273Y-42120185D01*
X165989125Y-42121398D01*
X166120814Y-42209390D01*
X166120827Y-42209397D01*
X166266498Y-42269735D01*
X166266503Y-42269737D01*
X166360645Y-42288463D01*
X166400691Y-42296429D01*
X166428814Y-42311139D01*
X166457703Y-42324333D01*
X166459560Y-42327222D01*
X166462602Y-42328814D01*
X166478308Y-42356396D01*
X166495477Y-42383111D01*
X166496137Y-42387705D01*
X166497176Y-42389529D01*
X166500500Y-42418046D01*
X166500500Y-42598903D01*
X166480815Y-42665942D01*
X166464181Y-42686584D01*
X165485339Y-43665425D01*
X165424016Y-43698910D01*
X165421850Y-43699361D01*
X165266508Y-43730261D01*
X165266498Y-43730264D01*
X165120827Y-43790602D01*
X165120814Y-43790609D01*
X164989711Y-43878210D01*
X164989707Y-43878213D01*
X164878213Y-43989707D01*
X164878210Y-43989711D01*
X164790609Y-44120814D01*
X164790602Y-44120827D01*
X164730264Y-44266498D01*
X164730261Y-44266510D01*
X164699500Y-44421153D01*
X164699500Y-44578846D01*
X164730261Y-44733489D01*
X164730264Y-44733501D01*
X164790602Y-44879172D01*
X164790609Y-44879185D01*
X164878210Y-45010288D01*
X164878213Y-45010292D01*
X164989707Y-45121786D01*
X164994419Y-45125653D01*
X164993558Y-45126701D01*
X165033932Y-45175014D01*
X165042637Y-45244339D01*
X165012480Y-45307366D01*
X164953035Y-45344083D01*
X164920234Y-45348500D01*
X159619943Y-45348500D01*
X159467216Y-45389423D01*
X159467209Y-45389426D01*
X159330290Y-45468475D01*
X159330282Y-45468481D01*
X159218481Y-45580282D01*
X159218475Y-45580290D01*
X159139426Y-45717209D01*
X159139423Y-45717216D01*
X159098500Y-45869943D01*
X159098500Y-59695952D01*
X159078815Y-59762991D01*
X159062181Y-59783633D01*
X135931637Y-82914176D01*
X135870314Y-82947661D01*
X135800622Y-82942677D01*
X135744689Y-82900805D01*
X135726025Y-82864813D01*
X135705220Y-82800781D01*
X135612287Y-82618390D01*
X135531846Y-82507671D01*
X135491971Y-82452786D01*
X135347213Y-82308028D01*
X135181614Y-82187715D01*
X135175006Y-82184348D01*
X135088917Y-82140483D01*
X135038123Y-82092511D01*
X135021328Y-82024690D01*
X135043865Y-81958555D01*
X135088917Y-81919516D01*
X135181610Y-81872287D01*
X135202770Y-81856913D01*
X135347213Y-81751971D01*
X135347215Y-81751968D01*
X135347219Y-81751966D01*
X135491966Y-81607219D01*
X135491968Y-81607215D01*
X135491971Y-81607213D01*
X135544732Y-81534590D01*
X135612287Y-81441610D01*
X135705220Y-81259219D01*
X135768477Y-81064534D01*
X135800500Y-80862352D01*
X135800500Y-80657648D01*
X135778889Y-80521206D01*
X135768477Y-80455465D01*
X135705218Y-80260776D01*
X135612419Y-80078650D01*
X135612287Y-80078390D01*
X135604556Y-80067749D01*
X135491971Y-79912786D01*
X135347213Y-79768028D01*
X135181614Y-79647715D01*
X135175006Y-79644348D01*
X135088917Y-79600483D01*
X135038123Y-79552511D01*
X135021328Y-79484690D01*
X135043865Y-79418555D01*
X135088917Y-79379516D01*
X135181610Y-79332287D01*
X135202770Y-79316913D01*
X135347213Y-79211971D01*
X135347215Y-79211968D01*
X135347219Y-79211966D01*
X135491966Y-79067219D01*
X135491968Y-79067215D01*
X135491971Y-79067213D01*
X135544732Y-78994590D01*
X135612287Y-78901610D01*
X135705220Y-78719219D01*
X135768477Y-78524534D01*
X135800500Y-78322352D01*
X135800500Y-78117648D01*
X135768477Y-77915466D01*
X135705220Y-77720781D01*
X135705218Y-77720778D01*
X135705218Y-77720776D01*
X135662439Y-77636819D01*
X135612287Y-77538390D01*
X135583690Y-77499029D01*
X135491971Y-77372786D01*
X135347213Y-77228028D01*
X135181611Y-77107713D01*
X135088369Y-77060203D01*
X135037574Y-77012229D01*
X135020779Y-76944407D01*
X135043317Y-76878273D01*
X135088371Y-76839234D01*
X135181347Y-76791861D01*
X135346894Y-76671582D01*
X135346895Y-76671582D01*
X135491582Y-76526895D01*
X135491582Y-76526894D01*
X135611859Y-76361349D01*
X135704755Y-76179029D01*
X135767990Y-75984413D01*
X135776609Y-75930000D01*
X134933012Y-75930000D01*
X134965925Y-75872993D01*
X135000000Y-75745826D01*
X135000000Y-75614174D01*
X134965925Y-75487007D01*
X134933012Y-75430000D01*
X135776609Y-75430000D01*
X135767990Y-75375586D01*
X135704755Y-75180970D01*
X135611859Y-74998650D01*
X135491582Y-74833105D01*
X135491582Y-74833104D01*
X135346895Y-74688417D01*
X135181349Y-74568140D01*
X135088370Y-74520765D01*
X135037574Y-74472790D01*
X135020779Y-74404969D01*
X135043316Y-74338835D01*
X135088370Y-74299795D01*
X135092788Y-74297544D01*
X135181610Y-74252287D01*
X135202770Y-74236913D01*
X135347213Y-74131971D01*
X135347215Y-74131968D01*
X135347219Y-74131966D01*
X135491966Y-73987219D01*
X135491968Y-73987215D01*
X135491971Y-73987213D01*
X135544732Y-73914590D01*
X135612287Y-73821610D01*
X135705220Y-73639219D01*
X135768477Y-73444534D01*
X135800500Y-73242352D01*
X135800500Y-73037648D01*
X135768477Y-72835466D01*
X135705220Y-72640781D01*
X135705218Y-72640778D01*
X135705218Y-72640776D01*
X135671503Y-72574607D01*
X135612287Y-72458390D01*
X135604556Y-72447749D01*
X135491971Y-72292786D01*
X135347213Y-72148028D01*
X135181613Y-72027715D01*
X135181612Y-72027714D01*
X135181610Y-72027713D01*
X135124653Y-71998691D01*
X134999223Y-71934781D01*
X134804534Y-71871522D01*
X134629995Y-71843878D01*
X134602352Y-71839500D01*
X134397648Y-71839500D01*
X134373329Y-71843351D01*
X134195465Y-71871522D01*
X134000776Y-71934781D01*
X133818386Y-72027715D01*
X133652786Y-72148028D01*
X133508028Y-72292786D01*
X133387715Y-72458386D01*
X133294781Y-72640776D01*
X133231522Y-72835465D01*
X133199500Y-73037648D01*
X133199500Y-73242351D01*
X133231522Y-73444534D01*
X133294781Y-73639223D01*
X133387715Y-73821613D01*
X133508028Y-73987213D01*
X133652786Y-74131971D01*
X133807749Y-74244556D01*
X133818390Y-74252287D01*
X133890424Y-74288990D01*
X133911629Y-74299795D01*
X133962425Y-74347770D01*
X133979220Y-74415591D01*
X133956682Y-74481726D01*
X133911629Y-74520765D01*
X133818650Y-74568140D01*
X133653105Y-74688417D01*
X133653104Y-74688417D01*
X133508417Y-74833104D01*
X133508417Y-74833105D01*
X133388140Y-74998650D01*
X133295244Y-75180970D01*
X133232009Y-75375586D01*
X133223391Y-75430000D01*
X134066988Y-75430000D01*
X134034075Y-75487007D01*
X134000000Y-75614174D01*
X134000000Y-75745826D01*
X134034075Y-75872993D01*
X134066988Y-75930000D01*
X133223391Y-75930000D01*
X133232009Y-75984413D01*
X133295244Y-76179029D01*
X133388140Y-76361349D01*
X133508417Y-76526894D01*
X133508417Y-76526895D01*
X133653104Y-76671582D01*
X133818652Y-76791861D01*
X133911628Y-76839234D01*
X133962425Y-76887208D01*
X133979220Y-76955029D01*
X133956683Y-77021164D01*
X133911630Y-77060203D01*
X133818388Y-77107713D01*
X133652786Y-77228028D01*
X133508028Y-77372786D01*
X133387715Y-77538386D01*
X133294781Y-77720776D01*
X133231522Y-77915465D01*
X133199500Y-78117648D01*
X133199500Y-78322351D01*
X133231522Y-78524534D01*
X133294781Y-78719223D01*
X133387715Y-78901613D01*
X133508028Y-79067213D01*
X133652786Y-79211971D01*
X133807749Y-79324556D01*
X133818390Y-79332287D01*
X133909840Y-79378883D01*
X133911080Y-79379515D01*
X133961876Y-79427490D01*
X133978671Y-79495311D01*
X133956134Y-79561446D01*
X133911080Y-79600485D01*
X133818386Y-79647715D01*
X133652786Y-79768028D01*
X133508028Y-79912786D01*
X133387715Y-80078386D01*
X133294781Y-80260776D01*
X133231522Y-80455465D01*
X133199500Y-80657648D01*
X133199500Y-80862351D01*
X133231522Y-81064534D01*
X133294781Y-81259223D01*
X133387715Y-81441613D01*
X133508028Y-81607213D01*
X133652786Y-81751971D01*
X133807749Y-81864556D01*
X133818390Y-81872287D01*
X133909840Y-81918883D01*
X133911080Y-81919515D01*
X133961876Y-81967490D01*
X133978671Y-82035311D01*
X133956134Y-82101446D01*
X133911080Y-82140485D01*
X133818386Y-82187715D01*
X133652786Y-82308028D01*
X133508028Y-82452786D01*
X133387715Y-82618386D01*
X133294781Y-82800776D01*
X133231522Y-82995465D01*
X133199500Y-83197648D01*
X133199500Y-83402351D01*
X133231522Y-83604534D01*
X133294781Y-83799223D01*
X133375788Y-83958205D01*
X133388684Y-84026874D01*
X133362408Y-84091614D01*
X133305302Y-84131872D01*
X133265303Y-84138500D01*
X125527669Y-84138500D01*
X125527653Y-84138499D01*
X125520057Y-84138499D01*
X125361943Y-84138499D01*
X125254587Y-84167265D01*
X125209210Y-84179424D01*
X125209209Y-84179425D01*
X125159096Y-84208359D01*
X125159095Y-84208360D01*
X125115689Y-84233420D01*
X125072285Y-84258479D01*
X125072282Y-84258481D01*
X120772181Y-88558583D01*
X120710858Y-88592068D01*
X120641166Y-88587084D01*
X120585233Y-88545212D01*
X120560816Y-88479748D01*
X120560500Y-88470902D01*
X120560500Y-88277648D01*
X120528477Y-88075465D01*
X120465218Y-87880776D01*
X120384212Y-87721795D01*
X120372287Y-87698390D01*
X120310967Y-87613989D01*
X120251971Y-87532786D01*
X120107213Y-87388028D01*
X119941614Y-87267715D01*
X119935006Y-87264348D01*
X119848917Y-87220483D01*
X119798123Y-87172511D01*
X119781328Y-87104690D01*
X119803865Y-87038555D01*
X119848917Y-86999516D01*
X119941610Y-86952287D01*
X119962770Y-86936913D01*
X120107213Y-86831971D01*
X120107215Y-86831968D01*
X120107219Y-86831966D01*
X120251966Y-86687219D01*
X120251968Y-86687215D01*
X120251971Y-86687213D01*
X120330706Y-86578842D01*
X120372287Y-86521610D01*
X120465220Y-86339219D01*
X120528477Y-86144534D01*
X120560500Y-85942352D01*
X120560500Y-85737648D01*
X120528477Y-85535466D01*
X120528476Y-85535464D01*
X120488357Y-85411989D01*
X120465220Y-85340781D01*
X120465218Y-85340778D01*
X120465218Y-85340776D01*
X120429020Y-85269735D01*
X120372287Y-85158390D01*
X120337547Y-85110574D01*
X120251971Y-84992786D01*
X120107213Y-84848028D01*
X119941614Y-84727715D01*
X119928657Y-84721113D01*
X119848917Y-84680483D01*
X119798123Y-84632511D01*
X119781328Y-84564690D01*
X119803865Y-84498555D01*
X119848917Y-84459516D01*
X119941610Y-84412287D01*
X120099085Y-84297876D01*
X120107213Y-84291971D01*
X120107215Y-84291968D01*
X120107219Y-84291966D01*
X120251966Y-84147219D01*
X120251968Y-84147215D01*
X120251971Y-84147213D01*
X120366401Y-83989711D01*
X120372287Y-83981610D01*
X120465220Y-83799219D01*
X120528477Y-83604534D01*
X120560500Y-83402352D01*
X120560500Y-83197648D01*
X120528477Y-82995466D01*
X120465220Y-82800781D01*
X120465218Y-82800778D01*
X120465218Y-82800776D01*
X120414953Y-82702127D01*
X120372287Y-82618390D01*
X120291846Y-82507671D01*
X120251971Y-82452786D01*
X120107213Y-82308028D01*
X119941611Y-82187713D01*
X119848369Y-82140203D01*
X119797574Y-82092229D01*
X119780779Y-82024407D01*
X119803317Y-81958273D01*
X119848371Y-81919234D01*
X119941347Y-81871861D01*
X120106894Y-81751582D01*
X120106895Y-81751582D01*
X120251582Y-81606895D01*
X120251582Y-81606894D01*
X120371859Y-81441349D01*
X120464755Y-81259029D01*
X120527990Y-81064413D01*
X120536609Y-81010000D01*
X119693012Y-81010000D01*
X119725925Y-80952993D01*
X119760000Y-80825826D01*
X119760000Y-80694174D01*
X119725925Y-80567007D01*
X119693012Y-80510000D01*
X120536609Y-80510000D01*
X120527990Y-80455586D01*
X120464755Y-80260970D01*
X120371859Y-80078650D01*
X120251582Y-79913105D01*
X120251582Y-79913104D01*
X120106895Y-79768417D01*
X119941349Y-79648140D01*
X119848370Y-79600765D01*
X119797574Y-79552790D01*
X119780779Y-79484969D01*
X119803316Y-79418835D01*
X119848370Y-79379795D01*
X119848920Y-79379515D01*
X119941610Y-79332287D01*
X119962770Y-79316913D01*
X120107213Y-79211971D01*
X120107215Y-79211968D01*
X120107219Y-79211966D01*
X120251966Y-79067219D01*
X120251968Y-79067215D01*
X120251971Y-79067213D01*
X120304732Y-78994590D01*
X120372287Y-78901610D01*
X120465220Y-78719219D01*
X120528477Y-78524534D01*
X120560500Y-78322352D01*
X120560500Y-78117648D01*
X120528477Y-77915466D01*
X120465220Y-77720781D01*
X120465218Y-77720778D01*
X120465218Y-77720776D01*
X120422439Y-77636819D01*
X120372287Y-77538390D01*
X120343690Y-77499029D01*
X120251971Y-77372786D01*
X120107213Y-77228028D01*
X119941614Y-77107715D01*
X119931088Y-77102352D01*
X119848917Y-77060483D01*
X119798123Y-77012511D01*
X119781328Y-76944690D01*
X119803865Y-76878555D01*
X119848917Y-76839516D01*
X119941610Y-76792287D01*
X120074874Y-76695466D01*
X120107213Y-76671971D01*
X120107215Y-76671968D01*
X120107219Y-76671966D01*
X120251966Y-76527219D01*
X120251968Y-76527215D01*
X120251971Y-76527213D01*
X120335946Y-76411629D01*
X120372287Y-76361610D01*
X120465220Y-76179219D01*
X120528477Y-75984534D01*
X120560500Y-75782352D01*
X120560500Y-75577648D01*
X120546144Y-75487007D01*
X120528477Y-75375465D01*
X120465218Y-75180776D01*
X120372419Y-74998650D01*
X120372287Y-74998390D01*
X120364556Y-74987749D01*
X120251971Y-74832786D01*
X120107219Y-74688034D01*
X120070930Y-74661669D01*
X120028264Y-74606339D01*
X120022285Y-74536726D01*
X120054890Y-74474931D01*
X120115728Y-74440573D01*
X120130562Y-74438060D01*
X120167483Y-74434091D01*
X120302328Y-74383797D01*
X120302327Y-74383797D01*
X120302331Y-74383796D01*
X120417546Y-74297546D01*
X120503796Y-74182331D01*
X120554091Y-74047483D01*
X120560500Y-73987873D01*
X120560499Y-72292128D01*
X120554091Y-72232517D01*
X120503796Y-72097669D01*
X120503795Y-72097668D01*
X120503793Y-72097664D01*
X120417547Y-71982455D01*
X120417544Y-71982452D01*
X120302335Y-71896206D01*
X120302328Y-71896202D01*
X120167482Y-71845908D01*
X120167483Y-71845908D01*
X120107883Y-71839501D01*
X120107881Y-71839500D01*
X120107873Y-71839500D01*
X120107865Y-71839500D01*
X119309096Y-71839500D01*
X119242057Y-71819815D01*
X119196302Y-71767011D01*
X119186358Y-71697853D01*
X119215383Y-71634297D01*
X119221415Y-71627819D01*
X122501364Y-68347870D01*
X135987821Y-54861414D01*
X136049142Y-54827931D01*
X136118834Y-54832915D01*
X136174767Y-54874787D01*
X136199184Y-54940251D01*
X136199500Y-54949097D01*
X136199500Y-55078846D01*
X136230261Y-55233489D01*
X136230264Y-55233501D01*
X136290602Y-55379172D01*
X136290609Y-55379185D01*
X136378210Y-55510288D01*
X136378213Y-55510292D01*
X136489707Y-55621786D01*
X136489711Y-55621789D01*
X136620814Y-55709390D01*
X136620827Y-55709397D01*
X136766498Y-55769735D01*
X136766503Y-55769737D01*
X136908002Y-55797883D01*
X136921153Y-55800499D01*
X136921156Y-55800500D01*
X136921158Y-55800500D01*
X137078844Y-55800500D01*
X137078845Y-55800499D01*
X137233497Y-55769737D01*
X137379179Y-55709394D01*
X137379185Y-55709390D01*
X137510875Y-55621398D01*
X137577553Y-55600520D01*
X137579766Y-55600500D01*
X141413331Y-55600500D01*
X141413347Y-55600501D01*
X141420943Y-55600501D01*
X141579054Y-55600501D01*
X141579057Y-55600501D01*
X141731785Y-55559577D01*
X141781904Y-55530639D01*
X141868716Y-55480520D01*
X141980520Y-55368716D01*
X141980520Y-55368714D01*
X141990728Y-55358507D01*
X141990730Y-55358504D01*
X143293409Y-54055824D01*
X143354730Y-54022341D01*
X143424422Y-54027325D01*
X143480355Y-54069197D01*
X143504772Y-54134661D01*
X143504378Y-54156755D01*
X143499500Y-54202127D01*
X143499500Y-54202133D01*
X143499500Y-54202134D01*
X143499500Y-55797870D01*
X143499501Y-55797876D01*
X143505909Y-55857484D01*
X143542901Y-55956668D01*
X143547885Y-56026360D01*
X143542901Y-56043332D01*
X143505909Y-56142514D01*
X143505908Y-56142516D01*
X143499501Y-56202116D01*
X143499501Y-56202123D01*
X143499500Y-56202135D01*
X143499500Y-57797870D01*
X143499501Y-57797876D01*
X143505909Y-57857484D01*
X143542901Y-57956668D01*
X143547885Y-58026360D01*
X143542901Y-58043332D01*
X143505909Y-58142514D01*
X143505908Y-58142516D01*
X143499501Y-58202116D01*
X143499501Y-58202123D01*
X143499500Y-58202135D01*
X143499500Y-59797870D01*
X143499501Y-59797876D01*
X143505909Y-59857484D01*
X143542901Y-59956668D01*
X143547885Y-60026360D01*
X143542901Y-60043332D01*
X143505909Y-60142514D01*
X143505908Y-60142516D01*
X143499501Y-60202116D01*
X143499501Y-60202123D01*
X143499500Y-60202135D01*
X143499500Y-61797870D01*
X143499501Y-61797876D01*
X143505908Y-61857483D01*
X143556202Y-61992328D01*
X143556206Y-61992335D01*
X143642452Y-62107544D01*
X143642455Y-62107547D01*
X143757664Y-62193793D01*
X143757671Y-62193797D01*
X143892517Y-62244091D01*
X143892516Y-62244091D01*
X143899444Y-62244835D01*
X143952127Y-62250500D01*
X146047872Y-62250499D01*
X146107483Y-62244091D01*
X146242331Y-62193796D01*
X146357546Y-62107546D01*
X146443796Y-61992331D01*
X146494091Y-61857483D01*
X146500500Y-61797873D01*
X146500499Y-60202128D01*
X146494091Y-60142517D01*
X146457096Y-60043330D01*
X146452113Y-59973642D01*
X146457092Y-59956680D01*
X146494091Y-59857483D01*
X146500500Y-59797873D01*
X146500499Y-58202128D01*
X146494091Y-58142517D01*
X146457096Y-58043330D01*
X146452113Y-57973642D01*
X146457092Y-57956680D01*
X146494091Y-57857483D01*
X146500500Y-57797873D01*
X146500499Y-56202128D01*
X146494091Y-56142517D01*
X146457096Y-56043330D01*
X146452113Y-55973642D01*
X146457092Y-55956680D01*
X146494091Y-55857483D01*
X146500500Y-55797873D01*
X146500499Y-54417846D01*
X146520184Y-54350808D01*
X146572987Y-54305053D01*
X146600307Y-54296230D01*
X146733497Y-54269737D01*
X146879179Y-54209394D01*
X146890055Y-54202127D01*
X147010875Y-54121398D01*
X147077553Y-54100520D01*
X147079766Y-54100500D01*
X157420234Y-54100500D01*
X157487273Y-54120185D01*
X157489125Y-54121398D01*
X157620814Y-54209390D01*
X157620827Y-54209397D01*
X157699894Y-54242147D01*
X157766503Y-54269737D01*
X157921153Y-54300499D01*
X157921156Y-54300500D01*
X157921158Y-54300500D01*
X158078844Y-54300500D01*
X158078845Y-54300499D01*
X158233497Y-54269737D01*
X158379179Y-54209394D01*
X158510289Y-54121789D01*
X158621789Y-54010289D01*
X158709394Y-53879179D01*
X158769737Y-53733497D01*
X158800500Y-53578842D01*
X158800500Y-53421158D01*
X158800500Y-53421155D01*
X158800499Y-53421153D01*
X158774531Y-53290606D01*
X158769737Y-53266503D01*
X158769735Y-53266498D01*
X158709397Y-53120827D01*
X158709390Y-53120814D01*
X158621789Y-52989711D01*
X158621786Y-52989707D01*
X158510292Y-52878213D01*
X158510288Y-52878210D01*
X158379185Y-52790609D01*
X158379172Y-52790602D01*
X158233501Y-52730264D01*
X158233489Y-52730261D01*
X158078845Y-52699500D01*
X158078842Y-52699500D01*
X157921158Y-52699500D01*
X157921155Y-52699500D01*
X157766510Y-52730261D01*
X157766498Y-52730264D01*
X157620827Y-52790602D01*
X157620814Y-52790609D01*
X157489125Y-52878602D01*
X157422447Y-52899480D01*
X157420234Y-52899500D01*
X147079766Y-52899500D01*
X147012727Y-52879815D01*
X147010875Y-52878602D01*
X146879185Y-52790609D01*
X146879172Y-52790602D01*
X146733501Y-52730264D01*
X146733491Y-52730261D01*
X146600307Y-52703769D01*
X146538396Y-52671384D01*
X146503822Y-52610668D01*
X146500499Y-52582152D01*
X146500499Y-52202129D01*
X146500498Y-52202123D01*
X146500497Y-52202116D01*
X146494091Y-52142517D01*
X146457096Y-52043330D01*
X146452113Y-51973642D01*
X146457092Y-51956680D01*
X146494091Y-51857483D01*
X146500500Y-51797873D01*
X146500499Y-50202128D01*
X146494091Y-50142517D01*
X146484366Y-50116444D01*
X146456831Y-50042618D01*
X146451847Y-49972927D01*
X146456831Y-49955951D01*
X146493597Y-49857376D01*
X146493598Y-49857372D01*
X146499999Y-49797844D01*
X146500000Y-49797827D01*
X146500000Y-49250000D01*
X143500000Y-49250000D01*
X143500000Y-49797844D01*
X143506401Y-49857372D01*
X143506403Y-49857380D01*
X143543168Y-49955952D01*
X143548152Y-50025644D01*
X143543168Y-50042617D01*
X143505909Y-50142514D01*
X143505908Y-50142516D01*
X143499782Y-50199500D01*
X143499501Y-50202123D01*
X143499500Y-50202135D01*
X143499500Y-51797870D01*
X143499501Y-51797876D01*
X143505909Y-51857484D01*
X143542901Y-51956668D01*
X143547885Y-52026360D01*
X143542901Y-52043332D01*
X143505909Y-52142514D01*
X143505908Y-52142516D01*
X143499501Y-52202116D01*
X143499501Y-52202123D01*
X143499500Y-52202135D01*
X143499500Y-52283302D01*
X143493045Y-52305281D01*
X143491121Y-52328109D01*
X143483389Y-52338168D01*
X143479815Y-52350341D01*
X143462503Y-52365341D01*
X143448542Y-52383506D01*
X143432928Y-52390968D01*
X143427011Y-52396096D01*
X143417353Y-52400025D01*
X143412531Y-52401753D01*
X143268215Y-52440423D01*
X143218095Y-52469360D01*
X143208445Y-52474931D01*
X143208443Y-52474932D01*
X143131285Y-52519479D01*
X143131282Y-52519481D01*
X143019478Y-52631286D01*
X142729102Y-52921661D01*
X142667779Y-52955146D01*
X142598087Y-52950162D01*
X142553740Y-52921661D01*
X142510292Y-52878213D01*
X142510288Y-52878210D01*
X142379185Y-52790609D01*
X142379172Y-52790602D01*
X142233501Y-52730264D01*
X142233489Y-52730261D01*
X142078845Y-52699500D01*
X142078842Y-52699500D01*
X141921158Y-52699500D01*
X141921155Y-52699500D01*
X141766510Y-52730261D01*
X141766498Y-52730264D01*
X141620827Y-52790602D01*
X141620814Y-52790609D01*
X141489125Y-52878602D01*
X141422447Y-52899480D01*
X141420234Y-52899500D01*
X137681997Y-52899500D01*
X137614958Y-52879815D01*
X137569203Y-52827011D01*
X137559259Y-52757853D01*
X137588284Y-52694297D01*
X137594316Y-52687819D01*
X142484291Y-47797844D01*
X143500000Y-47797844D01*
X143506401Y-47857372D01*
X143506403Y-47857383D01*
X143543434Y-47956668D01*
X143548418Y-48026360D01*
X143543434Y-48043332D01*
X143506403Y-48142616D01*
X143506401Y-48142627D01*
X143500000Y-48202155D01*
X143500000Y-48750000D01*
X144750000Y-48750000D01*
X145250000Y-48750000D01*
X146500000Y-48750000D01*
X146500000Y-48202172D01*
X146499999Y-48202155D01*
X146493598Y-48142627D01*
X146493597Y-48142623D01*
X146456564Y-48043334D01*
X146451580Y-47973642D01*
X146456564Y-47956666D01*
X146493597Y-47857376D01*
X146493598Y-47857372D01*
X146499999Y-47797844D01*
X146500000Y-47797827D01*
X146500000Y-47250000D01*
X145250000Y-47250000D01*
X145250000Y-48750000D01*
X144750000Y-48750000D01*
X144750000Y-47250000D01*
X143500000Y-47250000D01*
X143500000Y-47797844D01*
X142484291Y-47797844D01*
X143495816Y-46786319D01*
X143557139Y-46752834D01*
X143583497Y-46750000D01*
X144750000Y-46750000D01*
X145250000Y-46750000D01*
X146500000Y-46750000D01*
X146500000Y-46202172D01*
X146499999Y-46202155D01*
X146493598Y-46142627D01*
X146493596Y-46142620D01*
X146443354Y-46007913D01*
X146443350Y-46007906D01*
X146357190Y-45892812D01*
X146357187Y-45892809D01*
X146242093Y-45806649D01*
X146242086Y-45806645D01*
X146107379Y-45756403D01*
X146107372Y-45756401D01*
X146047844Y-45750000D01*
X145250000Y-45750000D01*
X145250000Y-46750000D01*
X144750000Y-46750000D01*
X144750000Y-45750000D01*
X144728748Y-45728748D01*
X144695263Y-45667425D01*
X144700247Y-45597733D01*
X144728746Y-45553388D01*
X148145316Y-42136819D01*
X148206639Y-42103334D01*
X148232997Y-42100500D01*
X165920234Y-42100500D01*
X165938377Y-42105827D01*
G37*
%TD.AperFunction*%
%TA.AperFunction,Conductor*%
G36*
X195442539Y-38020185D02*
G01*
X195488294Y-38072989D01*
X195499500Y-38124500D01*
X195499500Y-133875500D01*
X195479815Y-133942539D01*
X195427011Y-133988294D01*
X195375500Y-133999500D01*
X107124500Y-133999500D01*
X107057461Y-133979815D01*
X107011706Y-133927011D01*
X107000500Y-133875500D01*
X107000500Y-105091104D01*
X115954498Y-105091104D01*
X115955614Y-105095270D01*
X115989869Y-105223108D01*
X115995424Y-105243837D01*
X116012473Y-105273366D01*
X116012474Y-105273368D01*
X116074477Y-105380762D01*
X116074481Y-105380767D01*
X116193349Y-105499635D01*
X116193355Y-105499640D01*
X118319582Y-107625868D01*
X118353067Y-107687191D01*
X118348083Y-107756883D01*
X118319584Y-107801229D01*
X118268030Y-107852784D01*
X118147715Y-108018386D01*
X118054781Y-108200776D01*
X117991522Y-108395465D01*
X117959500Y-108597648D01*
X117959500Y-108802351D01*
X117991522Y-109004534D01*
X118054781Y-109199223D01*
X118147715Y-109381613D01*
X118268028Y-109547213D01*
X118412786Y-109691971D01*
X118567749Y-109804556D01*
X118578390Y-109812287D01*
X118694607Y-109871503D01*
X118760776Y-109905218D01*
X118760778Y-109905218D01*
X118760781Y-109905220D01*
X118865137Y-109939127D01*
X118955465Y-109968477D01*
X119056557Y-109984488D01*
X119157648Y-110000500D01*
X119157649Y-110000500D01*
X119362351Y-110000500D01*
X119362352Y-110000500D01*
X119564534Y-109968477D01*
X119759219Y-109905220D01*
X119941610Y-109812287D01*
X120034590Y-109744732D01*
X120107213Y-109691971D01*
X120107215Y-109691968D01*
X120107219Y-109691966D01*
X120251966Y-109547219D01*
X120251968Y-109547215D01*
X120251971Y-109547213D01*
X120304732Y-109474590D01*
X120372287Y-109381610D01*
X120465220Y-109199219D01*
X120528477Y-109004534D01*
X120560500Y-108802352D01*
X120560500Y-108597648D01*
X120528477Y-108395466D01*
X120465220Y-108200781D01*
X120465218Y-108200778D01*
X120465218Y-108200776D01*
X120431503Y-108134607D01*
X120372287Y-108018390D01*
X120301490Y-107920945D01*
X120251971Y-107852786D01*
X120200416Y-107801231D01*
X120196082Y-107793294D01*
X120188842Y-107787876D01*
X120179599Y-107763108D01*
X120166931Y-107739908D01*
X120167576Y-107730888D01*
X120164414Y-107722415D01*
X120170029Y-107696581D01*
X120171915Y-107670216D01*
X120177726Y-107661171D01*
X120179255Y-107654140D01*
X120200359Y-107625949D01*
X120200402Y-107625883D01*
X120203572Y-107622711D01*
X120206772Y-107619511D01*
X120206775Y-107619510D01*
X120206778Y-107619505D01*
X123719520Y-104106766D01*
X123798577Y-103969834D01*
X123839501Y-103817107D01*
X123839501Y-103658992D01*
X123839501Y-103651397D01*
X123839500Y-103651379D01*
X123839500Y-97528060D01*
X123839501Y-97528047D01*
X123839501Y-97359944D01*
X123839501Y-97359943D01*
X123798577Y-97207216D01*
X123771037Y-97159515D01*
X123719524Y-97070290D01*
X123719518Y-97070282D01*
X120554077Y-93904842D01*
X120520592Y-93843519D01*
X120523828Y-93778841D01*
X120528477Y-93764534D01*
X120560500Y-93562352D01*
X120560500Y-93357648D01*
X120529929Y-93164635D01*
X120528477Y-93155465D01*
X120499127Y-93065137D01*
X120465220Y-92960781D01*
X120465218Y-92960778D01*
X120465218Y-92960776D01*
X120431503Y-92894607D01*
X120372287Y-92778390D01*
X120364556Y-92767749D01*
X120251971Y-92612786D01*
X120200416Y-92561231D01*
X120196082Y-92553294D01*
X120188842Y-92547876D01*
X120179599Y-92523108D01*
X120166931Y-92499908D01*
X120167576Y-92490888D01*
X120164414Y-92482415D01*
X120170029Y-92456581D01*
X120171915Y-92430216D01*
X120177726Y-92421171D01*
X120179255Y-92414140D01*
X120200359Y-92385949D01*
X120200402Y-92385883D01*
X120203580Y-92382703D01*
X120206772Y-92379511D01*
X120206775Y-92379510D01*
X120206778Y-92379505D01*
X125008466Y-87577819D01*
X125069789Y-87544334D01*
X125096147Y-87541500D01*
X133265303Y-87541500D01*
X133332342Y-87561185D01*
X133378097Y-87613989D01*
X133388041Y-87683147D01*
X133375788Y-87721795D01*
X133294781Y-87880776D01*
X133231522Y-88075465D01*
X133199500Y-88277648D01*
X133199500Y-88482351D01*
X133231522Y-88684534D01*
X133294781Y-88879223D01*
X133358691Y-89004653D01*
X133380715Y-89047876D01*
X133387715Y-89061613D01*
X133508028Y-89227213D01*
X133652786Y-89371971D01*
X133806898Y-89483938D01*
X133818390Y-89492287D01*
X133897142Y-89532413D01*
X133911080Y-89539515D01*
X133961876Y-89587490D01*
X133978671Y-89655311D01*
X133956134Y-89721446D01*
X133911080Y-89760485D01*
X133818386Y-89807715D01*
X133652786Y-89928028D01*
X133508028Y-90072786D01*
X133387715Y-90238386D01*
X133294781Y-90420776D01*
X133231522Y-90615465D01*
X133199500Y-90817648D01*
X133199500Y-91022351D01*
X133231522Y-91224534D01*
X133294781Y-91419223D01*
X133387715Y-91601613D01*
X133508028Y-91767213D01*
X133652786Y-91911971D01*
X133807749Y-92024556D01*
X133818390Y-92032287D01*
X133909840Y-92078883D01*
X133911080Y-92079515D01*
X133961876Y-92127490D01*
X133978671Y-92195311D01*
X133956134Y-92261446D01*
X133911080Y-92300485D01*
X133818386Y-92347715D01*
X133652786Y-92468028D01*
X133508028Y-92612786D01*
X133387715Y-92778386D01*
X133294781Y-92960776D01*
X133231522Y-93155465D01*
X133199500Y-93357648D01*
X133199500Y-93562351D01*
X133231522Y-93764534D01*
X133294781Y-93959223D01*
X133353226Y-94073926D01*
X133385178Y-94136635D01*
X133387715Y-94141613D01*
X133508028Y-94307213D01*
X133652786Y-94451971D01*
X133807749Y-94564556D01*
X133818390Y-94572287D01*
X133890216Y-94608884D01*
X133911080Y-94619515D01*
X133961876Y-94667490D01*
X133978671Y-94735311D01*
X133956134Y-94801446D01*
X133911080Y-94840485D01*
X133818386Y-94887715D01*
X133652786Y-95008028D01*
X133508028Y-95152786D01*
X133387715Y-95318386D01*
X133294781Y-95500776D01*
X133231522Y-95695465D01*
X133199500Y-95897648D01*
X133199500Y-96102351D01*
X133231522Y-96304534D01*
X133294781Y-96499223D01*
X133324042Y-96556649D01*
X133367944Y-96642812D01*
X133387715Y-96681613D01*
X133508028Y-96847213D01*
X133652786Y-96991971D01*
X133807749Y-97104556D01*
X133818390Y-97112287D01*
X133909840Y-97158883D01*
X133911080Y-97159515D01*
X133961876Y-97207490D01*
X133978671Y-97275311D01*
X133956134Y-97341446D01*
X133911080Y-97380485D01*
X133818386Y-97427715D01*
X133652786Y-97548028D01*
X133508028Y-97692786D01*
X133387715Y-97858386D01*
X133294781Y-98040776D01*
X133231522Y-98235465D01*
X133199500Y-98437648D01*
X133199500Y-98642351D01*
X133231522Y-98844534D01*
X133294781Y-99039223D01*
X133387715Y-99221613D01*
X133508028Y-99387213D01*
X133652786Y-99531971D01*
X133807749Y-99644556D01*
X133818390Y-99652287D01*
X133909840Y-99698883D01*
X133911080Y-99699515D01*
X133961876Y-99747490D01*
X133978671Y-99815311D01*
X133956134Y-99881446D01*
X133911080Y-99920485D01*
X133818386Y-99967715D01*
X133652786Y-100088028D01*
X133508028Y-100232786D01*
X133387715Y-100398386D01*
X133294781Y-100580776D01*
X133231522Y-100775465D01*
X133199500Y-100977648D01*
X133199500Y-101182351D01*
X133231522Y-101384534D01*
X133294781Y-101579223D01*
X133387715Y-101761613D01*
X133508028Y-101927213D01*
X133652786Y-102071971D01*
X133807749Y-102184556D01*
X133818390Y-102192287D01*
X133909840Y-102238883D01*
X133911080Y-102239515D01*
X133961876Y-102287490D01*
X133978671Y-102355311D01*
X133956134Y-102421446D01*
X133911080Y-102460485D01*
X133818386Y-102507715D01*
X133652786Y-102628028D01*
X133508028Y-102772786D01*
X133387715Y-102938386D01*
X133294781Y-103120776D01*
X133231522Y-103315465D01*
X133199500Y-103517648D01*
X133199500Y-103722351D01*
X133231522Y-103924534D01*
X133294781Y-104119223D01*
X133346715Y-104221147D01*
X133384310Y-104294932D01*
X133387715Y-104301613D01*
X133508028Y-104467213D01*
X133652786Y-104611971D01*
X133790401Y-104711952D01*
X133818390Y-104732287D01*
X133879284Y-104763314D01*
X133911080Y-104779515D01*
X133961876Y-104827490D01*
X133978671Y-104895311D01*
X133956134Y-104961446D01*
X133911080Y-105000485D01*
X133818386Y-105047715D01*
X133652786Y-105168028D01*
X133508028Y-105312786D01*
X133387715Y-105478386D01*
X133294781Y-105660776D01*
X133231522Y-105855465D01*
X133199500Y-106057648D01*
X133199500Y-106262351D01*
X133231522Y-106464534D01*
X133294781Y-106659223D01*
X133387715Y-106841613D01*
X133508028Y-107007213D01*
X133652786Y-107151971D01*
X133807749Y-107264556D01*
X133818390Y-107272287D01*
X133909840Y-107318883D01*
X133911080Y-107319515D01*
X133961876Y-107367490D01*
X133978671Y-107435311D01*
X133956134Y-107501446D01*
X133911080Y-107540485D01*
X133818386Y-107587715D01*
X133652786Y-107708028D01*
X133508028Y-107852786D01*
X133387715Y-108018386D01*
X133294781Y-108200776D01*
X133231522Y-108395465D01*
X133199500Y-108597648D01*
X133199500Y-108802351D01*
X133231522Y-109004534D01*
X133294781Y-109199223D01*
X133387715Y-109381613D01*
X133508028Y-109547213D01*
X133652786Y-109691971D01*
X133807749Y-109804556D01*
X133818390Y-109812287D01*
X133934607Y-109871503D01*
X134000776Y-109905218D01*
X134000778Y-109905218D01*
X134000781Y-109905220D01*
X134105137Y-109939127D01*
X134195465Y-109968477D01*
X134296557Y-109984488D01*
X134397648Y-110000500D01*
X134397649Y-110000500D01*
X134602351Y-110000500D01*
X134602352Y-110000500D01*
X134804534Y-109968477D01*
X134999219Y-109905220D01*
X135181610Y-109812287D01*
X135274590Y-109744732D01*
X135347213Y-109691971D01*
X135347215Y-109691968D01*
X135347219Y-109691966D01*
X135491966Y-109547219D01*
X135491968Y-109547215D01*
X135491971Y-109547213D01*
X135544732Y-109474590D01*
X135612287Y-109381610D01*
X135705220Y-109199219D01*
X135768477Y-109004534D01*
X135800500Y-108802352D01*
X135800500Y-108597648D01*
X135768477Y-108395466D01*
X135705220Y-108200781D01*
X135705218Y-108200778D01*
X135705218Y-108200776D01*
X135671503Y-108134607D01*
X135612287Y-108018390D01*
X135541490Y-107920945D01*
X135491971Y-107852786D01*
X135347213Y-107708028D01*
X135181614Y-107587715D01*
X135175006Y-107584348D01*
X135088917Y-107540483D01*
X135038123Y-107492511D01*
X135021328Y-107424690D01*
X135043865Y-107358555D01*
X135088917Y-107319516D01*
X135181610Y-107272287D01*
X135202770Y-107256913D01*
X135347213Y-107151971D01*
X135347215Y-107151968D01*
X135347219Y-107151966D01*
X135491966Y-107007219D01*
X135491968Y-107007215D01*
X135491971Y-107007213D01*
X135544732Y-106934590D01*
X135612287Y-106841610D01*
X135705220Y-106659219D01*
X135768477Y-106464534D01*
X135800500Y-106262352D01*
X135800500Y-106202096D01*
X135820185Y-106135057D01*
X135836814Y-106114420D01*
X144999098Y-96952135D01*
X148999500Y-96952135D01*
X148999500Y-100047870D01*
X148999501Y-100047876D01*
X149005908Y-100107483D01*
X149056202Y-100242328D01*
X149056206Y-100242335D01*
X149142452Y-100357544D01*
X149142455Y-100357547D01*
X149257664Y-100443793D01*
X149257671Y-100443797D01*
X149392517Y-100494091D01*
X149392516Y-100494091D01*
X149399444Y-100494835D01*
X149452127Y-100500500D01*
X151547872Y-100500499D01*
X151607483Y-100494091D01*
X151742331Y-100443796D01*
X151857546Y-100357546D01*
X151943796Y-100242331D01*
X151994091Y-100107483D01*
X152000500Y-100047873D01*
X152000500Y-100047844D01*
X155000000Y-100047844D01*
X155006401Y-100107372D01*
X155006403Y-100107379D01*
X155056645Y-100242086D01*
X155056649Y-100242093D01*
X155142809Y-100357187D01*
X155142812Y-100357190D01*
X155257906Y-100443350D01*
X155257913Y-100443354D01*
X155392620Y-100493596D01*
X155392627Y-100493598D01*
X155452155Y-100499999D01*
X155452172Y-100500000D01*
X156250000Y-100500000D01*
X156750000Y-100500000D01*
X157547828Y-100500000D01*
X157547844Y-100499999D01*
X157607372Y-100493598D01*
X157607379Y-100493596D01*
X157742086Y-100443354D01*
X157742093Y-100443350D01*
X157857187Y-100357190D01*
X157857190Y-100357187D01*
X157943350Y-100242093D01*
X157943354Y-100242086D01*
X157993596Y-100107379D01*
X157993598Y-100107372D01*
X157999999Y-100047844D01*
X158000000Y-100047827D01*
X158000000Y-98750000D01*
X156750000Y-98750000D01*
X156750000Y-100500000D01*
X156250000Y-100500000D01*
X156250000Y-98750000D01*
X155000000Y-98750000D01*
X155000000Y-100047844D01*
X152000500Y-100047844D01*
X152000499Y-98437648D01*
X152000499Y-96952155D01*
X155000000Y-96952155D01*
X155000000Y-98250000D01*
X156250000Y-98250000D01*
X156750000Y-98250000D01*
X158000000Y-98250000D01*
X158000000Y-96952172D01*
X157999999Y-96952155D01*
X157993598Y-96892627D01*
X157993596Y-96892620D01*
X157943354Y-96757913D01*
X157943350Y-96757906D01*
X157857190Y-96642812D01*
X157857187Y-96642809D01*
X157742093Y-96556649D01*
X157742086Y-96556645D01*
X157607379Y-96506403D01*
X157607372Y-96506401D01*
X157547844Y-96500000D01*
X156750000Y-96500000D01*
X156750000Y-98250000D01*
X156250000Y-98250000D01*
X156250000Y-96500000D01*
X155452155Y-96500000D01*
X155392627Y-96506401D01*
X155392620Y-96506403D01*
X155257913Y-96556645D01*
X155257906Y-96556649D01*
X155142812Y-96642809D01*
X155142809Y-96642812D01*
X155056649Y-96757906D01*
X155056645Y-96757913D01*
X155006403Y-96892620D01*
X155006401Y-96892627D01*
X155000000Y-96952155D01*
X152000499Y-96952155D01*
X152000499Y-96952129D01*
X152000498Y-96952123D01*
X152000497Y-96952116D01*
X151994091Y-96892517D01*
X151943884Y-96757906D01*
X151943797Y-96757671D01*
X151943793Y-96757664D01*
X151857547Y-96642455D01*
X151857544Y-96642452D01*
X151742335Y-96556206D01*
X151742328Y-96556202D01*
X151607482Y-96505908D01*
X151607483Y-96505908D01*
X151547883Y-96499501D01*
X151547881Y-96499500D01*
X151547873Y-96499500D01*
X151547864Y-96499500D01*
X149452129Y-96499500D01*
X149452123Y-96499501D01*
X149392516Y-96505908D01*
X149257671Y-96556202D01*
X149257664Y-96556206D01*
X149142455Y-96642452D01*
X149142452Y-96642455D01*
X149056206Y-96757664D01*
X149056202Y-96757671D01*
X149005908Y-96892517D01*
X148999501Y-96952116D01*
X148999501Y-96952123D01*
X148999500Y-96952135D01*
X144999098Y-96952135D01*
X149387819Y-92563414D01*
X149449142Y-92529930D01*
X149518834Y-92534914D01*
X149574767Y-92576786D01*
X149599184Y-92642250D01*
X149599500Y-92651096D01*
X149599500Y-92651459D01*
X149599500Y-93348541D01*
X149599500Y-93348543D01*
X149599499Y-93348543D01*
X149637947Y-93541829D01*
X149637950Y-93541839D01*
X149713364Y-93723907D01*
X149713371Y-93723920D01*
X149822860Y-93887781D01*
X149822863Y-93887785D01*
X149962214Y-94027136D01*
X149962218Y-94027139D01*
X150126079Y-94136628D01*
X150126092Y-94136635D01*
X150308160Y-94212049D01*
X150308165Y-94212051D01*
X150308169Y-94212051D01*
X150308170Y-94212052D01*
X150501456Y-94250500D01*
X150501459Y-94250500D01*
X150698543Y-94250500D01*
X150853336Y-94219709D01*
X150891835Y-94212051D01*
X151073914Y-94136632D01*
X151237782Y-94027139D01*
X151377139Y-93887782D01*
X151486632Y-93723914D01*
X151562051Y-93541835D01*
X151574632Y-93478582D01*
X151600500Y-93348543D01*
X151600500Y-92901577D01*
X153749500Y-92901577D01*
X153749500Y-93098422D01*
X153780290Y-93292826D01*
X153841117Y-93480029D01*
X153883063Y-93562352D01*
X153930476Y-93655405D01*
X154046172Y-93814646D01*
X154185354Y-93953828D01*
X154344595Y-94069524D01*
X154387614Y-94091443D01*
X154519970Y-94158882D01*
X154519972Y-94158882D01*
X154519975Y-94158884D01*
X154620317Y-94191487D01*
X154707173Y-94219709D01*
X154901578Y-94250500D01*
X154901583Y-94250500D01*
X155098422Y-94250500D01*
X155292826Y-94219709D01*
X155480025Y-94158884D01*
X155655405Y-94069524D01*
X155814646Y-93953828D01*
X155953828Y-93814646D01*
X156069524Y-93655405D01*
X156158884Y-93480025D01*
X156219709Y-93292826D01*
X156250500Y-93098422D01*
X156250500Y-92901577D01*
X156219709Y-92707173D01*
X156177343Y-92576786D01*
X156158884Y-92519975D01*
X156158882Y-92519972D01*
X156158882Y-92519970D01*
X156092514Y-92389716D01*
X156069524Y-92344595D01*
X155953828Y-92185354D01*
X155814646Y-92046172D01*
X155655405Y-91930476D01*
X155619077Y-91911966D01*
X155480029Y-91841117D01*
X155292826Y-91780290D01*
X155098422Y-91749500D01*
X155098417Y-91749500D01*
X154901583Y-91749500D01*
X154901578Y-91749500D01*
X154707173Y-91780290D01*
X154519970Y-91841117D01*
X154344594Y-91930476D01*
X154253741Y-91996485D01*
X154185354Y-92046172D01*
X154185352Y-92046174D01*
X154185351Y-92046174D01*
X154046174Y-92185351D01*
X154046174Y-92185352D01*
X154046172Y-92185354D01*
X154041690Y-92191523D01*
X153930476Y-92344594D01*
X153841117Y-92519970D01*
X153780290Y-92707173D01*
X153749500Y-92901577D01*
X151600500Y-92901577D01*
X151600500Y-92651456D01*
X151562052Y-92458170D01*
X151562051Y-92458169D01*
X151562051Y-92458165D01*
X151546728Y-92421171D01*
X151486635Y-92276092D01*
X151486628Y-92276079D01*
X151377139Y-92112218D01*
X151377136Y-92112214D01*
X151237785Y-91972863D01*
X151237781Y-91972860D01*
X151073920Y-91863371D01*
X151073907Y-91863364D01*
X150891839Y-91787950D01*
X150891829Y-91787947D01*
X150698543Y-91749500D01*
X150698541Y-91749500D01*
X150501459Y-91749500D01*
X150501096Y-91749500D01*
X150434057Y-91729815D01*
X150388302Y-91677011D01*
X150378358Y-91607853D01*
X150407383Y-91544297D01*
X150413415Y-91537819D01*
X152593690Y-89357544D01*
X154787821Y-87163412D01*
X154849142Y-87129929D01*
X154918834Y-87134913D01*
X154974767Y-87176785D01*
X154999184Y-87242249D01*
X154999500Y-87251095D01*
X154999500Y-89047870D01*
X154999501Y-89047876D01*
X155005908Y-89107483D01*
X155056202Y-89242328D01*
X155056206Y-89242335D01*
X155142452Y-89357544D01*
X155142455Y-89357547D01*
X155257664Y-89443793D01*
X155257671Y-89443797D01*
X155392517Y-89494091D01*
X155392516Y-89494091D01*
X155399444Y-89494835D01*
X155452127Y-89500500D01*
X157547872Y-89500499D01*
X157582243Y-89496804D01*
X157651002Y-89509210D01*
X157683178Y-89532413D01*
X165320478Y-97169713D01*
X165320480Y-97169716D01*
X165432284Y-97281520D01*
X165432286Y-97281521D01*
X176363181Y-108212416D01*
X176396666Y-108273739D01*
X176399500Y-108300097D01*
X176399500Y-112045500D01*
X176379815Y-112112539D01*
X176327011Y-112158294D01*
X176275502Y-112169500D01*
X176202130Y-112169500D01*
X176202123Y-112169501D01*
X176142516Y-112175908D01*
X176007671Y-112226202D01*
X176007664Y-112226206D01*
X175892455Y-112312452D01*
X175892452Y-112312455D01*
X175806206Y-112427664D01*
X175806202Y-112427671D01*
X175755908Y-112562517D01*
X175749501Y-112622116D01*
X175749501Y-112622123D01*
X175749500Y-112622135D01*
X175749500Y-114217870D01*
X175749501Y-114217876D01*
X175755908Y-114277483D01*
X175806202Y-114412328D01*
X175806206Y-114412335D01*
X175892452Y-114527544D01*
X175892455Y-114527547D01*
X176007664Y-114613793D01*
X176007671Y-114613797D01*
X176142517Y-114664091D01*
X176142516Y-114664091D01*
X176149444Y-114664835D01*
X176202127Y-114670500D01*
X176266585Y-114670499D01*
X176333622Y-114690183D01*
X176379378Y-114742986D01*
X176389322Y-114812144D01*
X176360298Y-114875700D01*
X176339467Y-114894818D01*
X176309873Y-114916318D01*
X176309872Y-114916320D01*
X176870590Y-115477037D01*
X176807007Y-115494075D01*
X176692993Y-115559901D01*
X176599901Y-115652993D01*
X176534075Y-115767007D01*
X176517037Y-115830590D01*
X175956320Y-115269872D01*
X175956320Y-115269873D01*
X175930902Y-115304859D01*
X175930899Y-115304863D01*
X175841582Y-115480161D01*
X175780778Y-115667294D01*
X175750000Y-115861617D01*
X175750000Y-116058382D01*
X175780778Y-116252705D01*
X175841581Y-116439835D01*
X175930905Y-116615145D01*
X175956319Y-116650125D01*
X175956320Y-116650125D01*
X176517037Y-116089408D01*
X176534075Y-116152993D01*
X176599901Y-116267007D01*
X176692993Y-116360099D01*
X176807007Y-116425925D01*
X176870590Y-116442962D01*
X176309873Y-117003677D01*
X176309873Y-117003678D01*
X176344858Y-117029096D01*
X176521764Y-117119234D01*
X176572560Y-117167209D01*
X176589355Y-117235030D01*
X176566818Y-117301164D01*
X176521764Y-117340204D01*
X176344594Y-117430476D01*
X176253741Y-117496485D01*
X176185354Y-117546172D01*
X176185352Y-117546174D01*
X176185351Y-117546174D01*
X176046174Y-117685351D01*
X176046174Y-117685352D01*
X176046172Y-117685354D01*
X175930476Y-117844595D01*
X175927722Y-117848386D01*
X175872392Y-117891051D01*
X175827404Y-117899500D01*
X156500097Y-117899500D01*
X156433058Y-117879815D01*
X156412416Y-117863181D01*
X154236818Y-115687583D01*
X154203333Y-115626260D01*
X154200499Y-115599902D01*
X154200499Y-114423500D01*
X154220184Y-114356461D01*
X154272988Y-114310706D01*
X154324499Y-114299500D01*
X158698903Y-114299500D01*
X158728343Y-114308144D01*
X158758330Y-114314668D01*
X158763345Y-114318422D01*
X158765942Y-114319185D01*
X158786584Y-114335819D01*
X158847200Y-114396435D01*
X158880685Y-114457758D01*
X158877450Y-114522433D01*
X158836447Y-114648628D01*
X158799500Y-114881902D01*
X158799500Y-115118097D01*
X158836446Y-115351368D01*
X158909433Y-115575996D01*
X158966290Y-115687583D01*
X159016657Y-115786433D01*
X159155483Y-115977510D01*
X159322490Y-116144517D01*
X159513567Y-116283343D01*
X159612991Y-116334002D01*
X159724003Y-116390566D01*
X159724005Y-116390566D01*
X159724008Y-116390568D01*
X159832825Y-116425925D01*
X159948631Y-116463553D01*
X160181903Y-116500500D01*
X160181908Y-116500500D01*
X160418097Y-116500500D01*
X160651368Y-116463553D01*
X160724364Y-116439835D01*
X160875992Y-116390568D01*
X161086433Y-116283343D01*
X161277510Y-116144517D01*
X161444517Y-115977510D01*
X161583343Y-115786433D01*
X161690568Y-115575992D01*
X161763553Y-115351368D01*
X161770919Y-115304859D01*
X161800500Y-115118097D01*
X161800500Y-114881902D01*
X161763553Y-114648631D01*
X161707809Y-114477071D01*
X161690568Y-114424008D01*
X161690566Y-114424005D01*
X161690566Y-114424003D01*
X161615909Y-114277482D01*
X161583343Y-114213567D01*
X161444517Y-114022490D01*
X161277510Y-113855483D01*
X161086433Y-113716657D01*
X160875996Y-113609433D01*
X160651368Y-113536446D01*
X160418097Y-113499500D01*
X160418092Y-113499500D01*
X160181908Y-113499500D01*
X160181903Y-113499500D01*
X159948628Y-113536447D01*
X159822433Y-113577450D01*
X159752592Y-113579445D01*
X159696435Y-113547200D01*
X159486590Y-113337355D01*
X159486588Y-113337352D01*
X159367717Y-113218481D01*
X159367716Y-113218480D01*
X159280904Y-113168360D01*
X159280904Y-113168359D01*
X159280900Y-113168358D01*
X159230785Y-113139423D01*
X159078057Y-113098499D01*
X158919943Y-113098499D01*
X158912347Y-113098499D01*
X158912331Y-113098500D01*
X151319943Y-113098500D01*
X151167216Y-113139423D01*
X151167209Y-113139426D01*
X151030290Y-113218475D01*
X151030282Y-113218481D01*
X150918481Y-113330282D01*
X150918475Y-113330290D01*
X150839426Y-113467209D01*
X150839423Y-113467216D01*
X150798500Y-113619943D01*
X150798500Y-116214330D01*
X150798499Y-116214348D01*
X150798499Y-116380054D01*
X150798498Y-116380054D01*
X150836047Y-116520184D01*
X150839423Y-116532785D01*
X150854892Y-116559577D01*
X150867356Y-116581165D01*
X150918479Y-116669715D01*
X151037349Y-116788585D01*
X151037355Y-116788590D01*
X154164139Y-119915374D01*
X154164149Y-119915385D01*
X154168479Y-119919715D01*
X154168480Y-119919716D01*
X154280284Y-120031520D01*
X154367095Y-120081639D01*
X154367097Y-120081641D01*
X154405151Y-120103611D01*
X154417215Y-120110577D01*
X154569943Y-120151500D01*
X154728057Y-120151500D01*
X177348670Y-120151500D01*
X177348686Y-120151501D01*
X177356282Y-120151501D01*
X177514393Y-120151501D01*
X177514396Y-120151501D01*
X177667124Y-120110577D01*
X177717243Y-120081639D01*
X177804055Y-120031520D01*
X177915859Y-119919716D01*
X177915859Y-119919714D01*
X177926067Y-119909507D01*
X177926069Y-119909504D01*
X183358506Y-114477067D01*
X183358511Y-114477063D01*
X183368714Y-114466859D01*
X183368716Y-114466859D01*
X183480520Y-114355055D01*
X183556842Y-114222861D01*
X183559577Y-114218124D01*
X183600500Y-114065396D01*
X183600500Y-113907282D01*
X183600500Y-84842115D01*
X183606021Y-84823311D01*
X183606594Y-84803720D01*
X183615663Y-84790475D01*
X183620185Y-84775076D01*
X183634994Y-84762243D01*
X183646069Y-84746070D01*
X183668534Y-84733180D01*
X183672989Y-84729321D01*
X183676305Y-84727864D01*
X183678710Y-84726849D01*
X183767331Y-84693796D01*
X183780580Y-84683877D01*
X183794551Y-84677984D01*
X183814796Y-84675674D01*
X183833887Y-84668552D01*
X183851798Y-84671453D01*
X183863971Y-84670065D01*
X183874138Y-84675072D01*
X183890198Y-84677673D01*
X183970873Y-84711091D01*
X184154061Y-84747529D01*
X184168992Y-84750499D01*
X184168996Y-84750500D01*
X184168997Y-84750500D01*
X184371003Y-84750500D01*
X184453733Y-84734043D01*
X184461638Y-84734750D01*
X184469077Y-84731976D01*
X184495937Y-84737819D01*
X184523321Y-84740269D01*
X184531331Y-84745518D01*
X184537350Y-84746828D01*
X184565604Y-84767979D01*
X184712999Y-84915374D01*
X184713009Y-84915385D01*
X184717339Y-84919715D01*
X184717340Y-84919716D01*
X184829144Y-85031520D01*
X184849302Y-85043158D01*
X184877741Y-85059577D01*
X184877740Y-85059577D01*
X184877743Y-85059578D01*
X184966069Y-85110574D01*
X184966070Y-85110574D01*
X184966075Y-85110577D01*
X185118802Y-85151500D01*
X185118803Y-85151500D01*
X185795471Y-85151500D01*
X185795487Y-85151501D01*
X185803083Y-85151501D01*
X185961194Y-85151501D01*
X185961197Y-85151501D01*
X186113925Y-85110577D01*
X186202259Y-85059577D01*
X186250856Y-85031520D01*
X186362660Y-84919716D01*
X186362660Y-84919714D01*
X186372864Y-84909511D01*
X186372868Y-84909506D01*
X186759506Y-84522868D01*
X186759511Y-84522864D01*
X186769714Y-84512660D01*
X186769716Y-84512660D01*
X186881520Y-84400856D01*
X186953687Y-84275858D01*
X186960577Y-84263925D01*
X187001501Y-84111197D01*
X187001501Y-83953083D01*
X187001501Y-83945488D01*
X187001500Y-83945470D01*
X187001500Y-50819945D01*
X187001500Y-50819943D01*
X186960577Y-50667216D01*
X186960577Y-50667215D01*
X186913301Y-50585331D01*
X186881520Y-50530284D01*
X186769716Y-50418480D01*
X186769715Y-50418479D01*
X186765385Y-50414149D01*
X186765374Y-50414139D01*
X181938590Y-45587355D01*
X181938588Y-45587352D01*
X181819717Y-45468481D01*
X181819716Y-45468480D01*
X181732904Y-45418360D01*
X181732904Y-45418359D01*
X181732900Y-45418358D01*
X181682785Y-45389423D01*
X181530057Y-45348499D01*
X181371943Y-45348499D01*
X181364347Y-45348499D01*
X181364331Y-45348500D01*
X166079766Y-45348500D01*
X166012727Y-45328815D01*
X165966972Y-45276011D01*
X165957028Y-45206853D01*
X165986053Y-45143297D01*
X166005778Y-45125893D01*
X166005581Y-45125653D01*
X166010285Y-45121791D01*
X166010289Y-45121789D01*
X166121789Y-45010289D01*
X166209394Y-44879179D01*
X166269737Y-44733497D01*
X166289113Y-44636085D01*
X166300638Y-44578150D01*
X166333023Y-44516239D01*
X166334520Y-44514714D01*
X167469713Y-43379521D01*
X167469716Y-43379520D01*
X167581520Y-43267716D01*
X167631639Y-43180904D01*
X167660577Y-43130785D01*
X167701501Y-42978057D01*
X167701501Y-42819943D01*
X167701501Y-42812348D01*
X167701500Y-42812330D01*
X167701500Y-41340117D01*
X167701501Y-41340104D01*
X167701501Y-41172002D01*
X167701501Y-41172000D01*
X167660577Y-41019272D01*
X167581520Y-40882341D01*
X167229464Y-40530285D01*
X167229463Y-40530284D01*
X167117659Y-40418480D01*
X167030847Y-40368360D01*
X167030847Y-40368359D01*
X167030843Y-40368358D01*
X166980728Y-40339423D01*
X166828000Y-40298499D01*
X166669886Y-40298499D01*
X166662290Y-40298499D01*
X166662274Y-40298500D01*
X148053469Y-40298500D01*
X148053453Y-40298499D01*
X148045857Y-40298499D01*
X147887743Y-40298499D01*
X147780387Y-40327265D01*
X147735010Y-40339424D01*
X147735009Y-40339425D01*
X147684896Y-40368359D01*
X147684895Y-40368360D01*
X147641489Y-40393420D01*
X147598085Y-40418479D01*
X147598082Y-40418481D01*
X117367181Y-70649383D01*
X117305858Y-70682868D01*
X117236166Y-70677884D01*
X117180233Y-70636012D01*
X117155816Y-70570548D01*
X117155500Y-70561702D01*
X117155500Y-69745097D01*
X117175185Y-69678058D01*
X117191819Y-69657416D01*
X124599236Y-62249999D01*
X132014662Y-54834572D01*
X132075983Y-54801089D01*
X132078150Y-54800638D01*
X132136085Y-54789113D01*
X132233497Y-54769737D01*
X132379179Y-54709394D01*
X132510289Y-54621789D01*
X132621789Y-54510289D01*
X132709394Y-54379179D01*
X132769737Y-54233497D01*
X132800500Y-54078842D01*
X132800500Y-53921158D01*
X132800500Y-53921155D01*
X132800499Y-53921153D01*
X132769738Y-53766510D01*
X132769738Y-53766508D01*
X132769737Y-53766503D01*
X132756062Y-53733489D01*
X132709397Y-53620827D01*
X132709390Y-53620814D01*
X132621789Y-53489711D01*
X132621786Y-53489707D01*
X132510292Y-53378213D01*
X132510288Y-53378210D01*
X132379185Y-53290609D01*
X132379172Y-53290602D01*
X132233501Y-53230264D01*
X132233489Y-53230261D01*
X132078845Y-53199500D01*
X132078842Y-53199500D01*
X131921158Y-53199500D01*
X131921155Y-53199500D01*
X131766510Y-53230261D01*
X131766498Y-53230264D01*
X131620827Y-53290602D01*
X131620814Y-53290609D01*
X131489711Y-53378210D01*
X131489707Y-53378213D01*
X131378213Y-53489707D01*
X131378210Y-53489711D01*
X131290609Y-53620814D01*
X131290602Y-53620827D01*
X131230264Y-53766498D01*
X131230261Y-53766508D01*
X131199361Y-53921850D01*
X131166976Y-53983761D01*
X131165425Y-53985339D01*
X116074481Y-69076282D01*
X116074479Y-69076285D01*
X116024361Y-69163094D01*
X116024359Y-69163096D01*
X115995425Y-69213209D01*
X115995424Y-69213210D01*
X115995423Y-69213215D01*
X115954499Y-69365943D01*
X115954499Y-69524057D01*
X115954499Y-69524059D01*
X115954500Y-69534053D01*
X115954500Y-104925380D01*
X115954499Y-104925398D01*
X115954499Y-105091104D01*
X115954498Y-105091104D01*
X107000500Y-105091104D01*
X107000500Y-38124500D01*
X107020185Y-38057461D01*
X107072989Y-38011706D01*
X107124500Y-38000500D01*
X195375500Y-38000500D01*
X195442539Y-38020185D01*
G37*
%TD.AperFunction*%
%TD*%
D25*
%TO.C,U2*%
X177000000Y-113420000D03*
D26*
X177000000Y-115960000D03*
X177000000Y-118500000D03*
%TD*%
D27*
%TO.C,A1*%
X119260000Y-73140000D03*
D28*
X119260000Y-75680000D03*
X119260000Y-78220000D03*
X119260000Y-80760000D03*
X119260000Y-83300000D03*
X119260000Y-85840000D03*
X119260000Y-88380000D03*
X119260000Y-90920000D03*
X119260000Y-93460000D03*
X119260000Y-96000000D03*
X119260000Y-98540000D03*
X119260000Y-101080000D03*
X119260000Y-103620000D03*
X119260000Y-106160000D03*
X119260000Y-108700000D03*
X134500000Y-108700000D03*
X134500000Y-106160000D03*
X134500000Y-103620000D03*
X134500000Y-101080000D03*
X134500000Y-98540000D03*
X134500000Y-96000000D03*
X134500000Y-93460000D03*
X134500000Y-90920000D03*
X134500000Y-88380000D03*
X134500000Y-85840000D03*
X134500000Y-83300000D03*
X134500000Y-80760000D03*
X134500000Y-78220000D03*
X134500000Y-75680000D03*
X134500000Y-73140000D03*
%TD*%
D29*
%TO.C,Q1*%
X183000000Y-83500000D03*
D30*
X184270000Y-83500000D03*
X185540000Y-83500000D03*
%TD*%
D10*
%TO.C,C2*%
X182000000Y-67500000D03*
X185000000Y-67500000D03*
%TD*%
D31*
%TO.C,R1*%
X161655000Y-77000000D03*
D28*
X164195000Y-77000000D03*
%TD*%
D32*
%TO.C,J1*%
X150600000Y-93000000D03*
D33*
X155000000Y-93000000D03*
D11*
X150500000Y-87500000D03*
X156500000Y-87500000D03*
X156500000Y-98500000D03*
X150500000Y-98500000D03*
%TD*%
D10*
%TO.C,C1*%
X179500000Y-49500000D03*
X182500000Y-49500000D03*
%TD*%
D34*
%TO.C,J4*%
X175500000Y-95000000D03*
%TD*%
D35*
%TO.C,BZ1*%
X152700000Y-115000000D03*
D33*
X160300000Y-115000000D03*
%TD*%
D12*
%TO.C,U1*%
X145000000Y-47000000D03*
X145000000Y-49000000D03*
X145000000Y-51000000D03*
X145000000Y-53000000D03*
X145000000Y-55000000D03*
X145000000Y-57000000D03*
X145000000Y-59000000D03*
X145000000Y-61000000D03*
X161000000Y-61000000D03*
X161000000Y-59000000D03*
X161000000Y-57000000D03*
X161000000Y-55000000D03*
X161000000Y-53000000D03*
X161000000Y-51000000D03*
X161000000Y-49000000D03*
X161000000Y-47000000D03*
%TD*%
D39*
X176338095Y-108524819D02*
X176338095Y-109334342D01*
X176338095Y-109334342D02*
X176385714Y-109429580D01*
X176385714Y-109429580D02*
X176433333Y-109477200D01*
X176433333Y-109477200D02*
X176528571Y-109524819D01*
X176528571Y-109524819D02*
X176719047Y-109524819D01*
X176719047Y-109524819D02*
X176814285Y-109477200D01*
X176814285Y-109477200D02*
X176861904Y-109429580D01*
X176861904Y-109429580D02*
X176909523Y-109334342D01*
X176909523Y-109334342D02*
X176909523Y-108524819D01*
X177338095Y-108620057D02*
X177385714Y-108572438D01*
X177385714Y-108572438D02*
X177480952Y-108524819D01*
X177480952Y-108524819D02*
X177719047Y-108524819D01*
X177719047Y-108524819D02*
X177814285Y-108572438D01*
X177814285Y-108572438D02*
X177861904Y-108620057D01*
X177861904Y-108620057D02*
X177909523Y-108715295D01*
X177909523Y-108715295D02*
X177909523Y-108810533D01*
X177909523Y-108810533D02*
X177861904Y-108953390D01*
X177861904Y-108953390D02*
X177290476Y-109524819D01*
X177290476Y-109524819D02*
X177909523Y-109524819D01*
X126165714Y-68229104D02*
X126641904Y-68229104D01*
X126070476Y-68514819D02*
X126403809Y-67514819D01*
X126403809Y-67514819D02*
X126737142Y-68514819D01*
X127594285Y-68514819D02*
X127022857Y-68514819D01*
X127308571Y-68514819D02*
X127308571Y-67514819D01*
X127308571Y-67514819D02*
X127213333Y-67657676D01*
X127213333Y-67657676D02*
X127118095Y-67752914D01*
X127118095Y-67752914D02*
X127022857Y-67800533D01*
X125618095Y-108154819D02*
X125618095Y-108964342D01*
X125618095Y-108964342D02*
X125665714Y-109059580D01*
X125665714Y-109059580D02*
X125713333Y-109107200D01*
X125713333Y-109107200D02*
X125808571Y-109154819D01*
X125808571Y-109154819D02*
X125999047Y-109154819D01*
X125999047Y-109154819D02*
X126094285Y-109107200D01*
X126094285Y-109107200D02*
X126141904Y-109059580D01*
X126141904Y-109059580D02*
X126189523Y-108964342D01*
X126189523Y-108964342D02*
X126189523Y-108154819D01*
X126618095Y-109107200D02*
X126760952Y-109154819D01*
X126760952Y-109154819D02*
X126999047Y-109154819D01*
X126999047Y-109154819D02*
X127094285Y-109107200D01*
X127094285Y-109107200D02*
X127141904Y-109059580D01*
X127141904Y-109059580D02*
X127189523Y-108964342D01*
X127189523Y-108964342D02*
X127189523Y-108869104D01*
X127189523Y-108869104D02*
X127141904Y-108773866D01*
X127141904Y-108773866D02*
X127094285Y-108726247D01*
X127094285Y-108726247D02*
X126999047Y-108678628D01*
X126999047Y-108678628D02*
X126808571Y-108631009D01*
X126808571Y-108631009D02*
X126713333Y-108583390D01*
X126713333Y-108583390D02*
X126665714Y-108535771D01*
X126665714Y-108535771D02*
X126618095Y-108440533D01*
X126618095Y-108440533D02*
X126618095Y-108345295D01*
X126618095Y-108345295D02*
X126665714Y-108250057D01*
X126665714Y-108250057D02*
X126713333Y-108202438D01*
X126713333Y-108202438D02*
X126808571Y-108154819D01*
X126808571Y-108154819D02*
X127046666Y-108154819D01*
X127046666Y-108154819D02*
X127189523Y-108202438D01*
X127951428Y-108631009D02*
X128094285Y-108678628D01*
X128094285Y-108678628D02*
X128141904Y-108726247D01*
X128141904Y-108726247D02*
X128189523Y-108821485D01*
X128189523Y-108821485D02*
X128189523Y-108964342D01*
X128189523Y-108964342D02*
X128141904Y-109059580D01*
X128141904Y-109059580D02*
X128094285Y-109107200D01*
X128094285Y-109107200D02*
X127999047Y-109154819D01*
X127999047Y-109154819D02*
X127618095Y-109154819D01*
X127618095Y-109154819D02*
X127618095Y-108154819D01*
X127618095Y-108154819D02*
X127951428Y-108154819D01*
X127951428Y-108154819D02*
X128046666Y-108202438D01*
X128046666Y-108202438D02*
X128094285Y-108250057D01*
X128094285Y-108250057D02*
X128141904Y-108345295D01*
X128141904Y-108345295D02*
X128141904Y-108440533D01*
X128141904Y-108440533D02*
X128094285Y-108535771D01*
X128094285Y-108535771D02*
X128046666Y-108583390D01*
X128046666Y-108583390D02*
X127951428Y-108631009D01*
X127951428Y-108631009D02*
X127618095Y-108631009D01*
X184174761Y-80490057D02*
X184079523Y-80442438D01*
X184079523Y-80442438D02*
X183984285Y-80347200D01*
X183984285Y-80347200D02*
X183841428Y-80204342D01*
X183841428Y-80204342D02*
X183746190Y-80156723D01*
X183746190Y-80156723D02*
X183650952Y-80156723D01*
X183698571Y-80394819D02*
X183603333Y-80347200D01*
X183603333Y-80347200D02*
X183508095Y-80251961D01*
X183508095Y-80251961D02*
X183460476Y-80061485D01*
X183460476Y-80061485D02*
X183460476Y-79728152D01*
X183460476Y-79728152D02*
X183508095Y-79537676D01*
X183508095Y-79537676D02*
X183603333Y-79442438D01*
X183603333Y-79442438D02*
X183698571Y-79394819D01*
X183698571Y-79394819D02*
X183889047Y-79394819D01*
X183889047Y-79394819D02*
X183984285Y-79442438D01*
X183984285Y-79442438D02*
X184079523Y-79537676D01*
X184079523Y-79537676D02*
X184127142Y-79728152D01*
X184127142Y-79728152D02*
X184127142Y-80061485D01*
X184127142Y-80061485D02*
X184079523Y-80251961D01*
X184079523Y-80251961D02*
X183984285Y-80347200D01*
X183984285Y-80347200D02*
X183889047Y-80394819D01*
X183889047Y-80394819D02*
X183698571Y-80394819D01*
X185079523Y-80394819D02*
X184508095Y-80394819D01*
X184793809Y-80394819D02*
X184793809Y-79394819D01*
X184793809Y-79394819D02*
X184698571Y-79537676D01*
X184698571Y-79537676D02*
X184603333Y-79632914D01*
X184603333Y-79632914D02*
X184508095Y-79680533D01*
X183333333Y-65159580D02*
X183285714Y-65207200D01*
X183285714Y-65207200D02*
X183142857Y-65254819D01*
X183142857Y-65254819D02*
X183047619Y-65254819D01*
X183047619Y-65254819D02*
X182904762Y-65207200D01*
X182904762Y-65207200D02*
X182809524Y-65111961D01*
X182809524Y-65111961D02*
X182761905Y-65016723D01*
X182761905Y-65016723D02*
X182714286Y-64826247D01*
X182714286Y-64826247D02*
X182714286Y-64683390D01*
X182714286Y-64683390D02*
X182761905Y-64492914D01*
X182761905Y-64492914D02*
X182809524Y-64397676D01*
X182809524Y-64397676D02*
X182904762Y-64302438D01*
X182904762Y-64302438D02*
X183047619Y-64254819D01*
X183047619Y-64254819D02*
X183142857Y-64254819D01*
X183142857Y-64254819D02*
X183285714Y-64302438D01*
X183285714Y-64302438D02*
X183333333Y-64350057D01*
X183714286Y-64350057D02*
X183761905Y-64302438D01*
X183761905Y-64302438D02*
X183857143Y-64254819D01*
X183857143Y-64254819D02*
X184095238Y-64254819D01*
X184095238Y-64254819D02*
X184190476Y-64302438D01*
X184190476Y-64302438D02*
X184238095Y-64350057D01*
X184238095Y-64350057D02*
X184285714Y-64445295D01*
X184285714Y-64445295D02*
X184285714Y-64540533D01*
X184285714Y-64540533D02*
X184238095Y-64683390D01*
X184238095Y-64683390D02*
X183666667Y-65254819D01*
X183666667Y-65254819D02*
X184285714Y-65254819D01*
X162758333Y-75084819D02*
X162425000Y-74608628D01*
X162186905Y-75084819D02*
X162186905Y-74084819D01*
X162186905Y-74084819D02*
X162567857Y-74084819D01*
X162567857Y-74084819D02*
X162663095Y-74132438D01*
X162663095Y-74132438D02*
X162710714Y-74180057D01*
X162710714Y-74180057D02*
X162758333Y-74275295D01*
X162758333Y-74275295D02*
X162758333Y-74418152D01*
X162758333Y-74418152D02*
X162710714Y-74513390D01*
X162710714Y-74513390D02*
X162663095Y-74561009D01*
X162663095Y-74561009D02*
X162567857Y-74608628D01*
X162567857Y-74608628D02*
X162186905Y-74608628D01*
X163710714Y-75084819D02*
X163139286Y-75084819D01*
X163425000Y-75084819D02*
X163425000Y-74084819D01*
X163425000Y-74084819D02*
X163329762Y-74227676D01*
X163329762Y-74227676D02*
X163234524Y-74322914D01*
X163234524Y-74322914D02*
X163139286Y-74370533D01*
X146666666Y-98954819D02*
X146666666Y-99669104D01*
X146666666Y-99669104D02*
X146619047Y-99811961D01*
X146619047Y-99811961D02*
X146523809Y-99907200D01*
X146523809Y-99907200D02*
X146380952Y-99954819D01*
X146380952Y-99954819D02*
X146285714Y-99954819D01*
X147666666Y-99954819D02*
X147095238Y-99954819D01*
X147380952Y-99954819D02*
X147380952Y-98954819D01*
X147380952Y-98954819D02*
X147285714Y-99097676D01*
X147285714Y-99097676D02*
X147190476Y-99192914D01*
X147190476Y-99192914D02*
X147095238Y-99240533D01*
X180833333Y-47159580D02*
X180785714Y-47207200D01*
X180785714Y-47207200D02*
X180642857Y-47254819D01*
X180642857Y-47254819D02*
X180547619Y-47254819D01*
X180547619Y-47254819D02*
X180404762Y-47207200D01*
X180404762Y-47207200D02*
X180309524Y-47111961D01*
X180309524Y-47111961D02*
X180261905Y-47016723D01*
X180261905Y-47016723D02*
X180214286Y-46826247D01*
X180214286Y-46826247D02*
X180214286Y-46683390D01*
X180214286Y-46683390D02*
X180261905Y-46492914D01*
X180261905Y-46492914D02*
X180309524Y-46397676D01*
X180309524Y-46397676D02*
X180404762Y-46302438D01*
X180404762Y-46302438D02*
X180547619Y-46254819D01*
X180547619Y-46254819D02*
X180642857Y-46254819D01*
X180642857Y-46254819D02*
X180785714Y-46302438D01*
X180785714Y-46302438D02*
X180833333Y-46350057D01*
X181785714Y-47254819D02*
X181214286Y-47254819D01*
X181500000Y-47254819D02*
X181500000Y-46254819D01*
X181500000Y-46254819D02*
X181404762Y-46397676D01*
X181404762Y-46397676D02*
X181309524Y-46492914D01*
X181309524Y-46492914D02*
X181214286Y-46540533D01*
X175166666Y-89744819D02*
X175166666Y-90459104D01*
X175166666Y-90459104D02*
X175119047Y-90601961D01*
X175119047Y-90601961D02*
X175023809Y-90697200D01*
X175023809Y-90697200D02*
X174880952Y-90744819D01*
X174880952Y-90744819D02*
X174785714Y-90744819D01*
X176071428Y-90078152D02*
X176071428Y-90744819D01*
X175833333Y-89697200D02*
X175595238Y-90411485D01*
X175595238Y-90411485D02*
X176214285Y-90411485D01*
X155619047Y-107731009D02*
X155761904Y-107778628D01*
X155761904Y-107778628D02*
X155809523Y-107826247D01*
X155809523Y-107826247D02*
X155857142Y-107921485D01*
X155857142Y-107921485D02*
X155857142Y-108064342D01*
X155857142Y-108064342D02*
X155809523Y-108159580D01*
X155809523Y-108159580D02*
X155761904Y-108207200D01*
X155761904Y-108207200D02*
X155666666Y-108254819D01*
X155666666Y-108254819D02*
X155285714Y-108254819D01*
X155285714Y-108254819D02*
X155285714Y-107254819D01*
X155285714Y-107254819D02*
X155619047Y-107254819D01*
X155619047Y-107254819D02*
X155714285Y-107302438D01*
X155714285Y-107302438D02*
X155761904Y-107350057D01*
X155761904Y-107350057D02*
X155809523Y-107445295D01*
X155809523Y-107445295D02*
X155809523Y-107540533D01*
X155809523Y-107540533D02*
X155761904Y-107635771D01*
X155761904Y-107635771D02*
X155714285Y-107683390D01*
X155714285Y-107683390D02*
X155619047Y-107731009D01*
X155619047Y-107731009D02*
X155285714Y-107731009D01*
X156190476Y-107254819D02*
X156857142Y-107254819D01*
X156857142Y-107254819D02*
X156190476Y-108254819D01*
X156190476Y-108254819D02*
X156857142Y-108254819D01*
X157761904Y-108254819D02*
X157190476Y-108254819D01*
X157476190Y-108254819D02*
X157476190Y-107254819D01*
X157476190Y-107254819D02*
X157380952Y-107397676D01*
X157380952Y-107397676D02*
X157285714Y-107492914D01*
X157285714Y-107492914D02*
X157190476Y-107540533D01*
X152309048Y-112533866D02*
X153070953Y-112533866D01*
X152690000Y-112914819D02*
X152690000Y-112152914D01*
X152238095Y-52454819D02*
X152238095Y-53264342D01*
X152238095Y-53264342D02*
X152285714Y-53359580D01*
X152285714Y-53359580D02*
X152333333Y-53407200D01*
X152333333Y-53407200D02*
X152428571Y-53454819D01*
X152428571Y-53454819D02*
X152619047Y-53454819D01*
X152619047Y-53454819D02*
X152714285Y-53407200D01*
X152714285Y-53407200D02*
X152761904Y-53359580D01*
X152761904Y-53359580D02*
X152809523Y-53264342D01*
X152809523Y-53264342D02*
X152809523Y-52454819D01*
X153809523Y-53454819D02*
X153238095Y-53454819D01*
X153523809Y-53454819D02*
X153523809Y-52454819D01*
X153523809Y-52454819D02*
X153428571Y-52597676D01*
X153428571Y-52597676D02*
X153333333Y-52692914D01*
X153333333Y-52692914D02*
X153238095Y-52740533D01*
D40*
%TO.C,U2*%
X174600000Y-109810000D02*
X177100000Y-109810000D01*
X174600000Y-112310000D02*
X174600000Y-109810000D01*
X174840000Y-110050000D02*
X174840000Y-121870000D01*
X174840000Y-110050000D02*
X182560000Y-110050000D01*
X174840000Y-121870000D02*
X182560000Y-121870000D01*
X182560000Y-110050000D02*
X182560000Y-121870000D01*
%TO.C,A1*%
X117860000Y-69200000D02*
X117860000Y-71870000D01*
X117860000Y-74410000D02*
X117860000Y-112640000D01*
X117860000Y-112640000D02*
X122940000Y-112640000D01*
X120530000Y-71870000D02*
X117860000Y-71870000D01*
X120530000Y-74410000D02*
X117860000Y-74410000D01*
X120530000Y-74410000D02*
X120530000Y-71870000D01*
X120530000Y-74410000D02*
X120530000Y-109970000D01*
X120530000Y-109970000D02*
X117860000Y-109970000D01*
X122940000Y-104760000D02*
X130820000Y-104760000D01*
X122940000Y-115180000D02*
X122940000Y-104760000D01*
X130820000Y-104760000D02*
X130820000Y-115180000D01*
X130820000Y-115180000D02*
X122940000Y-115180000D01*
X133230000Y-71870000D02*
X133230000Y-109970000D01*
X133230000Y-71870000D02*
X135900000Y-71870000D01*
X133230000Y-109970000D02*
X135900000Y-109970000D01*
X135900000Y-69200000D02*
X117860000Y-69200000D01*
X135900000Y-112640000D02*
X130820000Y-112640000D01*
X135900000Y-112640000D02*
X135900000Y-69200000D01*
%TO.C,Q1*%
X182470000Y-85350000D02*
X186070000Y-85350000D01*
X182431522Y-85338478D02*
G75*
G02*
X184270000Y-80899999I1838478J1838478D01*
G01*
X184270000Y-80900000D02*
G75*
G02*
X186108478Y-85338478I0J-2600000D01*
G01*
%TO.C,C2*%
X181125000Y-66065000D02*
X181500000Y-66065000D01*
X181312500Y-65877500D02*
X181312500Y-66252500D01*
X181929437Y-66440000D02*
X182629437Y-65740000D01*
X181929437Y-68560000D02*
X182629437Y-69260000D01*
X182629437Y-65740000D02*
X185260000Y-65740000D01*
X182629437Y-69260000D02*
X185260000Y-69260000D01*
X185260000Y-65740000D02*
X185260000Y-66440000D01*
X185260000Y-69260000D02*
X185260000Y-68560000D01*
%TO.C,R1*%
X163025000Y-77000000D02*
X163095000Y-77000000D01*
X163025000Y-77000000D02*
G75*
G02*
X160285000Y-77000000I-1370000J0D01*
G01*
X160285000Y-77000000D02*
G75*
G02*
X163025000Y-77000000I1370000J0D01*
G01*
%TO.C,J1*%
X145390000Y-88440000D02*
X149000000Y-88440000D01*
X145390000Y-97560000D02*
X145390000Y-88440000D01*
X145390000Y-97560000D02*
X149000000Y-97560000D01*
X148700000Y-90000000D02*
X153500000Y-90000000D01*
X148700000Y-96000000D02*
X153500000Y-96000000D01*
X148700000Y-97560000D02*
X148700000Y-88440000D01*
X149240000Y-85740000D02*
X149240000Y-87640000D01*
X150580000Y-85740000D02*
X149240000Y-85740000D01*
X152000000Y-88440000D02*
X155000000Y-88440000D01*
X152000000Y-97560000D02*
X155000000Y-97560000D01*
X158000000Y-88440000D02*
X160310000Y-88440000D01*
X158000000Y-97560000D02*
X160310000Y-97560000D01*
X160310000Y-97560000D02*
X160310000Y-88440000D01*
X153500000Y-90000000D02*
G75*
G02*
X153500000Y-96000000I0J-3000000D01*
G01*
%TO.C,C1*%
X178625000Y-48065000D02*
X179000000Y-48065000D01*
X178812500Y-47877500D02*
X178812500Y-48252500D01*
X179429437Y-48440000D02*
X180129437Y-47740000D01*
X179429437Y-50560000D02*
X180129437Y-51260000D01*
X180129437Y-47740000D02*
X182760000Y-47740000D01*
X180129437Y-51260000D02*
X182760000Y-51260000D01*
X182760000Y-47740000D02*
X182760000Y-48440000D01*
X182760000Y-51260000D02*
X182760000Y-50560000D01*
%TO.C,J4*%
X170940000Y-91290000D02*
X170940000Y-98710000D01*
X170940000Y-91290000D02*
X180060000Y-91290000D01*
X170940000Y-98710000D02*
X180060000Y-98710000D01*
X174124000Y-96124000D02*
X173937000Y-96311000D01*
X174332000Y-96419000D02*
X174188000Y-96563000D01*
X176812000Y-93437000D02*
X176668000Y-93581000D01*
X177063000Y-93689000D02*
X176876000Y-93875000D01*
X180060000Y-91290000D02*
X180060000Y-98710000D01*
X177560000Y-95000000D02*
G75*
G02*
X173440000Y-95000000I-2060000J0D01*
G01*
X173440000Y-95000000D02*
G75*
G02*
X177560000Y-95000000I2060000J0D01*
G01*
%TO.C,BZ1*%
X162600000Y-115000000D02*
G75*
G02*
X150400000Y-115000000I-6100000J0D01*
G01*
X150400000Y-115000000D02*
G75*
G02*
X162600000Y-115000000I6100000J0D01*
G01*
D39*
%TO.C,U1*%
X144750000Y-45250000D02*
X161250000Y-45250000D01*
X144750000Y-46000000D02*
X144750000Y-45250000D01*
X144750000Y-62000000D02*
X144750000Y-62750000D01*
X144750000Y-62750000D02*
X161250000Y-62750000D01*
X161250000Y-45250000D02*
X161250000Y-46000000D01*
X161250000Y-62750000D02*
X161250000Y-62000000D01*
D40*
X144450000Y-46000000D02*
X143950000Y-46000000D01*
X144450000Y-45500000D01*
X144450000Y-46000000D01*
G36*
X144450000Y-46000000D02*
G01*
X143950000Y-46000000D01*
X144450000Y-45500000D01*
X144450000Y-46000000D01*
G37*
%TD*%
D41*
X106500000Y-37500000D02*
X196000000Y-37500000D01*
X196000000Y-134500000D01*
X106500000Y-134500000D01*
X106500000Y-37500000D01*
M02*
