M48
; DRILL file {KiCad 9.0.0} date 2025-04-09T10:42:48+0530
; FORMAT={-:-/ absolute / metric / decimal}
; #@! TF.CreationDate,2025-04-09T10:42:48+05:30
; #@! TF.GenerationSoftware,Kicad,Pcbnew,9.0.0
; #@! TF.FileFunction,Plated,1,2,PTH
FMAT,2
METRIC
; #@! TA.AperFunction,Plated,PTH,ViaDrill
T1C0.300
; #@! TA.AperFunction,Plated,PTH,ComponentDrill
T2C0.750
; #@! TA.AperFunction,Plated,PTH,ComponentDrill
T3C0.800
; #@! TA.AperFunction,Plated,PTH,ComponentDrill
T4C1.000
; #@! TA.AperFunction,Plated,PTH,ComponentDrill
T5C1.500
%
G90
G05
T1
X132.0Y-54.0
X137.0Y-55.0
X141.0Y-76.5
X142.0Y-53.5
X144.0Y-79.5
X146.5Y-53.5
X146.85Y-79.5
X148.0Y-84.5
X153.0Y-86.5
X155.5Y-50.0
X158.0Y-53.5
X158.5Y-86.5
X162.5Y-53.5
X163.0Y-49.5
X164.0Y-51.0
X165.5Y-44.5
X166.5Y-41.5
X166.5Y-50.0
X169.0Y-84.5
T2
X183.0Y-83.5
X184.27Y-83.5
X185.54Y-83.5
T3
X161.655Y-77.0
X164.195Y-77.0
T4
X119.26Y-73.14
X119.26Y-75.68
X119.26Y-78.22
X119.26Y-80.76
X119.26Y-83.3
X119.26Y-85.84
X119.26Y-88.38
X119.26Y-90.92
X119.26Y-93.46
X119.26Y-96.0
X119.26Y-98.54
X119.26Y-101.08
X119.26Y-103.62
X119.26Y-106.16
X119.26Y-108.7
X134.5Y-73.14
X134.5Y-75.68
X134.5Y-78.22
X134.5Y-80.76
X134.5Y-83.3
X134.5Y-85.84
X134.5Y-88.38
X134.5Y-90.92
X134.5Y-93.46
X134.5Y-96.0
X134.5Y-98.54
X134.5Y-101.08
X134.5Y-103.62
X134.5Y-106.16
X134.5Y-108.7
X152.7Y-115.0
X160.3Y-115.0
X177.0Y-113.42
X177.0Y-115.96
X177.0Y-118.5
T5
X175.5Y-95.0
M30
